<svg width="54" height="54" viewBox="0 0 54 54" fill="none" xmlns="http://www.w3.org/2000/svg">
<rect width="54" height="54" rx="7.40909" fill="white"/>
<path d="M41.4375 17.8125H12.5625C11.8376 17.8125 11.25 18.4001 11.25 19.125V40.125C11.25 40.8499 11.8376 41.4375 12.5625 41.4375H41.4375C42.1624 41.4375 42.75 40.8499 42.75 40.125V19.125C42.75 18.4001 42.1624 17.8125 41.4375 17.8125Z" stroke="#A32E8C" stroke-width="2" stroke-linecap="round" stroke-linejoin="round"/>
<path d="M33.5625 17.8125V15.1875C33.5625 14.4913 33.2859 13.8236 32.7937 13.3313C32.3014 12.8391 31.6337 12.5625 30.9375 12.5625H23.0625C22.3663 12.5625 21.6986 12.8391 21.2063 13.3313C20.7141 13.8236 20.4375 14.4913 20.4375 15.1875V17.8125" stroke="#A32E8C" stroke-width="2" stroke-linecap="round" stroke-linejoin="round"/>
<path d="M42.75 26.7207C37.9631 29.4891 32.5298 30.9437 27 30.9371C21.4692 30.9515 16.0339 29.4964 11.25 26.7207" stroke="#A32E8C" stroke-width="2" stroke-linecap="round" stroke-linejoin="round"/>
<path d="M25.0312 25.6875H28.9688" stroke="#A32E8C" stroke-width="2" stroke-linecap="round" stroke-linejoin="round"/>
</svg>
