<svg width="23" height="23" viewBox="0 0 23 23" fill="none" xmlns="http://www.w3.org/2000/svg">
<rect width="23" height="23" rx="5" fill="#D6DFF8"/>
<path d="M10.4167 11.5C10.4167 11.7873 10.5308 12.0629 10.734 12.266C10.9371 12.4692 11.2127 12.5833 11.5 12.5833C11.7873 12.5833 12.0629 12.4692 12.266 12.266C12.4692 12.0629 12.5833 11.7873 12.5833 11.5C12.5833 11.2127 12.4692 10.9371 12.266 10.734C12.0629 10.5308 11.7873 10.4167 11.5 10.4167C11.2127 10.4167 10.9371 10.5308 10.734 10.734C10.5308 10.9371 10.4167 11.2127 10.4167 11.5Z" stroke="#5A60DF" stroke-linecap="round" stroke-linejoin="round"/>
<path d="M16.375 11.5C15.075 13.6667 13.45 14.75 11.5 14.75C9.55 14.75 7.925 13.6667 6.625 11.5C7.925 9.33333 9.55 8.25 11.5 8.25C13.45 8.25 15.075 9.33333 16.375 11.5Z" stroke="#5A60DF" stroke-linecap="round" stroke-linejoin="round"/>
</svg>
