<svg width="54" height="54" viewBox="0 0 54 54" fill="none" xmlns="http://www.w3.org/2000/svg">
<rect width="54" height="54" rx="7.40909" fill="white"/>
<path d="M20.4371 28.1317L35.1863 41.1091C35.3567 41.26 35.5635 41.3639 35.7863 41.4108C36.0091 41.4576 36.2402 41.4457 36.457 41.3762C36.6738 41.3067 36.8687 41.182 37.0228 41.0143C37.1768 40.8467 37.2846 40.6419 37.3355 40.42L43.5043 13.4809C43.556 13.2489 43.5437 13.0072 43.4688 12.7817C43.3939 12.5561 43.2591 12.3551 43.0789 12.2001C42.8987 12.0451 42.6797 11.942 42.4455 11.9018C42.2112 11.8615 41.9704 11.8856 41.7488 11.9716L11.4628 23.8661C10.2488 24.3419 10.4128 26.1137 11.6925 26.3762L20.4371 28.1317Z" stroke="#A32E8C" stroke-width="2" stroke-linecap="round" stroke-linejoin="round"/>
<path d="M20.4375 28.1312L42.7664 12.0039" stroke="#A32E8C" stroke-width="2" stroke-linecap="round" stroke-linejoin="round"/>
<path d="M27.8039 34.6133L22.6852 39.732C22.5025 39.9175 22.2689 40.0444 22.014 40.0968C21.759 40.1491 21.4943 40.1245 21.2534 40.026C21.0125 39.9275 20.8063 39.7597 20.661 39.5437C20.5157 39.3278 20.4379 39.0735 20.4375 38.8133V28.1328" stroke="#A32E8C" stroke-width="2" stroke-linecap="round" stroke-linejoin="round"/>
</svg>
