<svg width="40" height="40" viewBox="0 0 40 40" fill="none" xmlns="http://www.w3.org/2000/svg">
<rect width="40" height="40" rx="5" fill="#D6DFF8"/>
<path d="M17.5 20C17.5 20.663 17.7634 21.2989 18.2322 21.7678C18.7011 22.2366 19.337 22.5 20 22.5C20.663 22.5 21.2989 22.2366 21.7678 21.7678C22.2366 21.2989 22.5 20.663 22.5 20C22.5 19.337 22.2366 18.7011 21.7678 18.2322C21.2989 17.7634 20.663 17.5 20 17.5C19.337 17.5 18.7011 17.7634 18.2322 18.2322C17.7634 18.7011 17.5 19.337 17.5 20Z" stroke="#5A60DF" stroke-width="2" stroke-linecap="round" stroke-linejoin="round"/>
<path d="M31.25 20C28.25 25 24.5 27.5 20 27.5C15.5 27.5 11.75 25 8.75 20C11.75 15 15.5 12.5 20 12.5C24.5 12.5 28.25 15 31.25 20Z" stroke="#5A60DF" stroke-width="2" stroke-linecap="round" stroke-linejoin="round"/>
</svg>
