<svg width="40" height="40" viewBox="0 0 40 40" fill="none" xmlns="http://www.w3.org/2000/svg">
<g clip-path="url(#clip0_506_59811)">
<path d="M0.0224609 13.4167C0.0224609 8.67091 0.0224609 6.29803 0.960682 4.49188C1.75131 2.96985 2.99231 1.72885 4.51434 0.938221C6.32049 0 8.69337 0 13.4391 0H26.6058C31.3515 0 33.7244 0 35.5306 0.938221C37.0526 1.72885 38.2936 2.96985 39.0842 4.49188C40.0225 6.29803 40.0225 8.67091 40.0225 13.4167V26.5833C40.0225 31.3291 40.0225 33.702 39.0842 35.5081C38.2936 37.0301 37.0526 38.2711 35.5306 39.0618C33.7244 40 31.3515 40 26.6058 40H13.4391C8.69337 40 6.32049 40 4.51434 39.0618C2.99231 38.2711 1.75131 37.0301 0.960682 35.5081C0.0224609 33.702 0.0224609 31.3291 0.0224609 26.5833V13.4167Z" fill="url(#paint0_radial_506_59811)"/>
<path d="M0.0224609 13.4167C0.0224609 8.67091 0.0224609 6.29803 0.960682 4.49188C1.75131 2.96985 2.99231 1.72885 4.51434 0.938221C6.32049 0 8.69337 0 13.4391 0H26.6058C31.3515 0 33.7244 0 35.5306 0.938221C37.0526 1.72885 38.2936 2.96985 39.0842 4.49188C40.0225 6.29803 40.0225 8.67091 40.0225 13.4167V26.5833C40.0225 31.3291 40.0225 33.702 39.0842 35.5081C38.2936 37.0301 37.0526 38.2711 35.5306 39.0618C33.7244 40 31.3515 40 26.6058 40H13.4391C8.69337 40 6.32049 40 4.51434 39.0618C2.99231 38.2711 1.75131 37.0301 0.960682 35.5081C0.0224609 33.702 0.0224609 31.3291 0.0224609 26.5833V13.4167Z" fill="url(#paint1_radial_506_59811)"/>
<path d="M20.0003 5.45508C16.0501 5.45508 15.5544 5.47235 14.0029 5.54296C12.4545 5.61387 11.3976 5.85902 10.4727 6.21871C9.5161 6.59023 8.70461 7.0872 7.89615 7.89599C7.08708 8.70447 6.59013 9.51599 6.21741 10.4724C5.85682 11.3975 5.61137 12.4548 5.54167 14.0027C5.47228 15.5542 5.4541 16.0502 5.4541 20.0005C5.4541 23.9508 5.47168 24.4451 5.54198 25.9966C5.61319 27.5451 5.85833 28.602 6.21771 29.5269C6.58952 30.4836 7.08648 31.2951 7.89524 32.1036C8.7034 32.9127 9.51489 33.4108 10.4709 33.7824C11.3963 34.142 12.4536 34.3872 14.0017 34.4581C15.5532 34.5287 16.0486 34.546 19.9985 34.546C23.949 34.546 24.4432 34.5287 25.9947 34.4581C27.5431 34.3872 28.6013 34.142 29.5267 33.7824C30.483 33.4108 31.2933 32.9127 32.1015 32.1036C32.9105 31.2951 33.4075 30.4836 33.7802 29.5272C34.1378 28.602 34.3832 27.5448 34.456 25.9969C34.5256 24.4454 34.5438 23.9508 34.5438 20.0005C34.5438 16.0502 34.5256 15.5545 34.456 14.003C34.3832 12.4545 34.1378 11.3975 33.7802 10.4727C33.4075 9.51599 32.9105 8.70447 32.1015 7.89599C31.2924 7.0869 30.4833 6.58993 29.5258 6.21871C28.5986 5.85902 27.541 5.61387 25.9926 5.54296C24.4411 5.47235 23.9472 5.45508 19.9958 5.45508H20.0003ZM18.6955 8.07629C19.0828 8.07568 19.5149 8.07629 20.0003 8.07629C23.8838 8.07629 24.3441 8.09023 25.8777 8.15993C27.2959 8.22478 28.0655 8.46174 28.5782 8.66084C29.257 8.92447 29.7409 9.23962 30.2497 9.74871C30.7588 10.2578 31.0739 10.7427 31.3382 11.4214C31.5373 11.9336 31.7745 12.7033 31.8391 14.1214C31.9088 15.6548 31.9239 16.1154 31.9239 19.9972C31.9239 23.879 31.9088 24.3396 31.8391 25.873C31.7742 27.2911 31.5373 28.0608 31.3382 28.573C31.0745 29.2517 30.7588 29.7351 30.2497 30.2439C29.7406 30.753 29.2573 31.0681 28.5782 31.3317C28.0661 31.5317 27.2959 31.7681 25.8777 31.833C24.3444 31.9027 23.8838 31.9178 20.0003 31.9178C16.1165 31.9178 15.6562 31.9027 14.1229 31.833C12.7048 31.7675 11.9351 31.5305 11.4221 31.3314C10.7433 31.0678 10.2585 30.7527 9.74943 30.2436C9.24035 29.7345 8.92521 29.2508 8.66097 28.5717C8.46189 28.0596 8.22462 27.2899 8.16008 25.8717C8.09039 24.3384 8.07645 23.8778 8.07645 19.9936C8.07645 16.1093 8.09039 15.6511 8.16008 14.1178C8.22493 12.6996 8.46189 11.9299 8.66097 11.4172C8.9246 10.7384 9.24035 10.2536 9.74943 9.74447C10.2585 9.23538 10.7433 8.92023 11.4221 8.65599C11.9348 8.45599 12.7048 8.21962 14.1229 8.15447C15.4647 8.09387 15.9847 8.07568 18.6955 8.07265V8.07629ZM27.7643 10.4914C26.8007 10.4914 26.0189 11.2723 26.0189 12.2363C26.0189 13.1999 26.8007 13.9817 27.7643 13.9817C28.7279 13.9817 29.5097 13.1999 29.5097 12.2363C29.5097 11.2727 28.7279 10.4908 27.7643 10.4908V10.4914ZM20.0003 12.5308C15.8753 12.5308 12.5309 15.8754 12.5309 20.0005C12.5309 24.1257 15.8753 27.4687 20.0003 27.4687C24.1254 27.4687 27.4686 24.1257 27.4686 20.0005C27.4686 15.8754 24.1251 12.5308 20 12.5308H20.0003ZM20.0003 15.152C22.6778 15.152 24.8487 17.3227 24.8487 20.0005C24.8487 22.6781 22.6778 24.849 20.0003 24.849C17.3225 24.849 15.152 22.6781 15.152 20.0005C15.152 17.3227 17.3225 15.152 20.0003 15.152Z" fill="white"/>
</g>
<defs>
<radialGradient id="paint0_radial_506_59811" cx="0" cy="0" r="1" gradientUnits="userSpaceOnUse" gradientTransform="translate(10.6475 43.0808) rotate(-90) scale(39.643 36.8711)">
<stop stop-color="#FFDD55"/>
<stop offset="0.1" stop-color="#FFDD55"/>
<stop offset="0.5" stop-color="#FF543E"/>
<stop offset="1" stop-color="#C837AB"/>
</radialGradient>
<radialGradient id="paint1_radial_506_59811" cx="0" cy="0" r="1" gradientUnits="userSpaceOnUse" gradientTransform="translate(-6.67775 2.88153) rotate(78.6806) scale(17.7206 73.0449)">
<stop stop-color="#3771C8"/>
<stop offset="0.128" stop-color="#3771C8"/>
<stop offset="1" stop-color="#6600FF" stop-opacity="0"/>
</radialGradient>
<clipPath id="clip0_506_59811">
<rect width="40" height="40" fill="white"/>
</clipPath>
</defs>
</svg>
