<svg width="27" height="28" viewBox="0 0 27 28" fill="none" xmlns="http://www.w3.org/2000/svg">
<path fill-rule="evenodd" clip-rule="evenodd" d="M13.5 18.5C17.8492 18.5 21.375 14.9742 21.375 10.625C21.375 6.27576 17.8492 2.75 13.5 2.75C9.15076 2.75 5.625 6.27576 5.625 10.625C5.625 14.9742 9.15076 18.5 13.5 18.5ZM13.5 7.25C13.1804 7.25 12.9667 7.63344 12.5392 8.40033L12.4286 8.59873C12.3071 8.81665 12.2464 8.92562 12.1517 8.99751C12.057 9.0694 11.939 9.09609 11.7031 9.14947L11.4883 9.19806C10.6582 9.38589 10.2431 9.4798 10.1444 9.79736C10.0456 10.1149 10.3286 10.4458 10.8945 11.1076L11.0409 11.2788C11.2018 11.4669 11.2822 11.5609 11.3184 11.6772C11.3545 11.7936 11.3424 11.919 11.3181 12.1699L11.2959 12.3984C11.2104 13.2813 11.1676 13.7228 11.4261 13.9191C11.6846 14.1153 12.0733 13.9364 12.8505 13.5785L13.0516 13.4859C13.2725 13.3842 13.3829 13.3334 13.5 13.3334C13.6171 13.3334 13.7275 13.3842 13.9484 13.4859L14.1495 13.5785C14.9267 13.9364 15.3154 14.1153 15.5739 13.9191C15.8324 13.7228 15.7896 13.2813 15.7041 12.3984L15.6819 12.1699C15.6576 11.919 15.6455 11.7936 15.6816 11.6772C15.7178 11.5609 15.7982 11.4669 15.959 11.2788L16.1055 11.1076C16.6714 10.4458 16.9544 10.1149 16.8556 9.79736C16.7569 9.4798 16.3418 9.38589 15.5117 9.19806L15.2969 9.14947C15.061 9.09609 14.943 9.0694 14.8483 8.99751C14.7536 8.92562 14.6929 8.81665 14.5714 8.59873L14.4608 8.40033C14.0333 7.63344 13.8196 7.25 13.5 7.25Z" fill="#FFD54B"/>
<path d="M5.05707 15.1191L3.36606 16.87C2.75843 17.4992 2.45462 17.8137 2.34948 18.0801C2.10991 18.6872 2.31493 19.3606 2.83655 19.6799C3.06547 19.82 3.47835 19.8637 4.30413 19.9511C4.77034 20.0004 5.00349 20.025 5.19874 20.0999C5.63587 20.2674 5.9759 20.6195 6.13772 21.0721C6.21 21.2742 6.23382 21.5156 6.28144 21.9984C6.36579 22.8534 6.40797 23.2809 6.54331 23.5179C6.85172 24.058 7.50208 24.2703 8.08838 24.0222C8.34567 23.9134 8.64948 23.5988 9.25711 22.9696L12.0494 20.0785C9.0147 19.6167 6.44878 17.7284 5.05707 15.1191Z" fill="#FFD54B"/>
<path d="M14.9506 20.0785L17.7429 22.9697C18.3505 23.5988 18.6543 23.9134 18.9116 24.0222C19.4979 24.2703 20.1483 24.058 20.4567 23.5179C20.592 23.2809 20.6342 22.8534 20.7186 21.9984C20.7662 21.5156 20.79 21.2742 20.8623 21.0721C21.0241 20.6195 21.3641 20.2674 21.8013 20.0999C21.9965 20.025 22.2296 20.0004 22.6959 19.9511C23.5217 19.8637 23.9345 19.82 24.1634 19.6799C24.6851 19.3606 24.8901 18.6872 24.6505 18.0801C24.5454 17.8137 24.2416 17.4992 23.6339 16.87L21.9429 15.1191C20.5512 17.7284 17.9853 19.6167 14.9506 20.0785Z" fill="#FFD54B"/>
</svg>
