<svg width="57" height="57" viewBox="0 0 57 57" fill="none" xmlns="http://www.w3.org/2000/svg">
<rect width="57" height="57" rx="7.40909" fill="white"/>
<path d="M28.5 33.75C32.1244 33.75 35.0625 30.8119 35.0625 27.1875C35.0625 23.5631 32.1244 20.625 28.5 20.625C24.8756 20.625 21.9375 23.5631 21.9375 27.1875C21.9375 30.8119 24.8756 33.75 28.5 33.75Z" stroke="#A32E8C" stroke-width="2" stroke-linecap="round" stroke-linejoin="round"/>
<path d="M17.9668 40.2131C18.9543 38.268 20.4611 36.6344 22.3203 35.4932C24.1794 34.3521 26.3182 33.748 28.4996 33.748C30.681 33.748 32.8198 34.3521 34.679 35.4932C36.5381 36.6344 38.0449 38.268 39.0324 40.2131" stroke="#A32E8C" stroke-width="2" stroke-linecap="round" stroke-linejoin="round"/>
<path d="M40.3125 28.5L44.25 32.4375L48.1875 28.5" stroke="#A32E8C" stroke-width="2" stroke-linecap="round" stroke-linejoin="round"/>
<path d="M8.8125 28.5L12.75 24.5625L16.6875 28.5" stroke="#A32E8C" stroke-width="2" stroke-linecap="round" stroke-linejoin="round"/>
<path d="M44.2496 32.4371V28.4996C44.2533 25.0967 43.1548 21.7842 41.1186 19.0578C39.0824 16.3314 36.2179 14.3378 32.9539 13.3754C29.69 12.413 26.2021 12.5336 23.0124 13.7192C19.8228 14.9047 17.1028 17.0914 15.2598 19.952" stroke="#A32E8C" stroke-width="2" stroke-linecap="round" stroke-linejoin="round"/>
<path d="M12.75 24.5625V28.5C12.7463 31.9029 13.8448 35.2154 15.881 37.9418C17.9173 40.6682 20.7817 42.6618 24.0457 43.6242C27.3097 44.5866 30.7975 44.466 33.9872 43.2804C37.1769 42.0949 39.8968 39.9082 41.7399 37.0477" stroke="#A32E8C" stroke-width="2" stroke-linecap="round" stroke-linejoin="round"/>
</svg>
