<svg width="90" height="89" viewBox="0 0 90 89" fill="none" xmlns="http://www.w3.org/2000/svg">
<path d="M56.2655 70.1246C67.1792 61.5287 82.0829 51.9167 82.0829 33.8868C82.0829 15.8532 61.6871 3.06315 44.9996 20.4033L40.8537 28.6914C40.1788 30.0413 39.8413 30.7199 40.0045 31.3837C40.1677 32.0512 40.7832 32.4888 42.0144 33.3677L49.1196 38.4407C50.6622 39.542 51.4336 40.0909 51.53 40.903C51.6301 41.7151 51.0108 42.4345 49.7797 43.8696L43.5274 51.1677C42.4668 52.4025 41.9328 53.0218 41.9625 53.7487C41.9922 54.4755 42.5669 55.0503 43.7202 56.2036L47.2246 59.7079C47.9477 60.4311 48.3112 60.7945 48.4409 61.2654C48.5707 61.7364 48.4484 62.2333 48.1999 63.2309L44.9996 76.0209C48.7079 76.0209 52.4163 73.1655 56.2655 70.1246Z" fill="#A42E8B"/>
<path opacity="0.5" d="M30.5596 67.6661C20.1466 59.6412 7.9165 50.2184 7.9165 33.8832C7.9165 15.8495 28.3123 3.05949 44.9998 20.3997L40.8539 28.6878C40.179 30.0376 39.8415 30.7162 40.0047 31.38C40.1679 32.0475 40.7835 32.4851 42.0146 33.364L49.1198 38.437C50.6625 39.5384 51.4338 40.0872 51.5302 40.8993C51.6303 41.7114 51.011 42.4309 49.7799 43.866L43.5276 51.164C42.467 52.3989 41.933 53.0182 41.9627 53.745C41.9924 54.4718 42.5672 55.0466 43.7205 56.1999L47.2248 59.7043C47.948 60.4274 48.3114 60.7908 48.4412 61.2618C48.571 61.7327 48.4486 62.2296 48.2001 63.2272L44.9998 76.0209C41.2915 76.0209 37.5832 73.1655 33.7339 70.1247C32.7067 69.3163 31.6424 68.5004 30.5596 67.6661Z" fill="#785994"/>
</svg>
