<svg width="140" height="140" viewBox="0 0 140 140" fill="none" xmlns="http://www.w3.org/2000/svg">
<path d="M70 17.875C76.8452 17.875 83.6233 19.2233 89.9474 21.8428C96.2715 24.4623 102.018 28.3018 106.858 33.1421C111.698 37.9823 115.538 43.7285 118.157 50.0526C120.777 56.3767 122.125 63.1548 122.125 70C122.125 76.8452 120.777 83.6233 118.157 89.9474C115.538 96.2715 111.698 102.018 106.858 106.858C102.018 111.698 96.2715 115.538 89.9474 118.157C83.6233 120.777 76.8452 122.125 70 122.125C63.1548 122.125 56.3767 120.777 50.0526 118.157C43.7285 115.538 37.9823 111.698 33.1421 106.858C28.3018 102.018 24.4623 96.2715 21.8428 89.9474C19.2233 83.6233 17.875 76.8452 17.875 70C17.875 63.1548 19.2233 56.3767 21.8428 50.0526C24.4623 43.7285 28.3018 37.9823 33.1421 33.1421C37.9823 28.3018 43.7285 24.4623 50.0526 21.8428C56.3767 19.2233 63.1548 17.875 70 17.875ZM70 17.875L69.9999 41.0417M69.9999 41.0417L97.5683 61.0229M69.9999 41.0417L42.4316 61.0229M97.5683 61.0229L87.3749 93.1667M97.5683 61.0229L119.229 52.625M87.3749 93.1667H52.6249L42.4316 61.0229M87.3749 93.1667L101.854 110.542M42.4316 61.0229L20.7708 52.625M52.9725 93.4562L38.1458 110.542" stroke="#A32E8C" stroke-width="7" stroke-linecap="round" stroke-linejoin="round"/>
</svg>
