<svg width="14" height="14" viewBox="0 0 14 14" fill="none" xmlns="http://www.w3.org/2000/svg">
<path d="M2.33301 4.08333H11.6663M2.91634 4.08333L3.49967 11.0833C3.49967 11.3928 3.62259 11.6895 3.84138 11.9083C4.06018 12.1271 4.35692 12.25 4.66634 12.25H9.33301C9.64243 12.25 9.93917 12.1271 10.158 11.9083C10.3768 11.6895 10.4997 11.3928 10.4997 11.0833L11.083 4.08333M5.24967 4.08333V2.33333C5.24967 2.17862 5.31113 2.03025 5.42053 1.92085C5.52993 1.81146 5.6783 1.75 5.83301 1.75H8.16634C8.32105 1.75 8.46942 1.81146 8.57882 1.92085C8.68822 2.03025 8.74967 2.17862 8.74967 2.33333V4.08333M5.83301 7L8.16634 9.33333M8.16634 7L5.83301 9.33333" stroke="#E14747" stroke-linecap="round" stroke-linejoin="round"/>
</svg>
