<svg width="140" height="140" viewBox="0 0 140 140" fill="none" xmlns="http://www.w3.org/2000/svg">
<path d="M81.5832 87.3747L105.155 112.186C107.14 114.275 109.749 115.664 112.591 116.144C115.432 116.624 118.353 116.17 120.914 114.85C123.475 113.53 125.54 111.415 126.797 108.822C128.054 106.229 128.437 103.298 127.888 100.47L118.621 52.7927M46.8332 52.6247V64.208M41.0415 58.4163H52.6249M81.5832 58.4163H93.1665M90.2707 29.458C97.9509 29.458 105.317 32.509 110.747 37.9397C116.178 43.3704 119.229 50.7361 119.229 58.4163C119.229 66.0966 116.178 73.4622 110.747 78.893C105.317 84.3237 97.9509 87.3747 90.2707 87.3747H58.4165L35.163 111.856C33.1739 113.95 30.558 115.341 27.7096 115.819C24.8611 116.297 21.9345 115.837 19.3706 114.507C16.8067 113.177 14.7446 111.05 13.495 108.446C12.2453 105.842 11.8759 102.902 12.4423 100.07L21.9058 52.7347C23.2194 46.1696 26.7673 40.2625 31.9457 36.0187C37.1241 31.7748 43.613 29.4564 50.3082 29.458H90.2707Z" stroke="#A32E8C" stroke-width="7" stroke-linecap="round" stroke-linejoin="round"/>
</svg>
