<svg width="140" height="140" viewBox="0 0 140 140" fill="none" xmlns="http://www.w3.org/2000/svg">
<path d="M58.4167 87.3753H23.6667C22.1306 87.3753 20.6575 86.7651 19.5713 85.679C18.4852 84.5928 17.875 83.1197 17.875 81.5837V35.2503C17.875 33.7143 18.4852 32.2411 19.5713 31.155C20.6575 30.0689 22.1306 29.4587 23.6667 29.4587H58.4167M41.0417 110.542H58.4167M98.9583 46.8337V46.8916M52.625 87.3753V110.542M75.7917 29.4587C75.7917 27.9226 76.4019 26.4495 77.488 25.3633C78.5742 24.2772 80.0473 23.667 81.5833 23.667H116.333C117.869 23.667 119.343 24.2772 120.429 25.3633C121.515 26.4495 122.125 27.9226 122.125 29.4587V110.542C122.125 112.078 121.515 113.551 120.429 114.637C119.343 115.723 117.869 116.334 116.333 116.334H81.5833C80.0473 116.334 78.5742 115.723 77.488 114.637C76.4019 113.551 75.7917 112.078 75.7917 110.542V29.4587ZM93.1667 93.167C93.1667 94.703 93.7769 96.1762 94.863 97.2623C95.9491 98.3485 97.4223 98.9587 98.9583 98.9587C100.494 98.9587 101.968 98.3485 103.054 97.2623C104.14 96.1762 104.75 94.703 104.75 93.167C104.75 91.631 104.14 90.1578 103.054 89.0717C101.968 87.9855 100.494 87.3753 98.9583 87.3753C97.4223 87.3753 95.9491 87.9855 94.863 89.0717C93.7769 90.1578 93.1667 91.631 93.1667 93.167Z" stroke="#A32E8C" stroke-width="7" stroke-linecap="round" stroke-linejoin="round"/>
</svg>
