<svg width="40" height="40" viewBox="0 0 40 40" fill="none" xmlns="http://www.w3.org/2000/svg">
<rect width="40" height="40" rx="5" fill="#EBD6F8"/>
<path d="M13.75 13.7501H12.5C11.837 13.7501 11.2011 14.0135 10.7322 14.4824C10.2634 14.9512 10 15.5871 10 16.2501V27.5001C10 28.1632 10.2634 28.7991 10.7322 29.2679C11.2011 29.7367 11.837 30.0001 12.5 30.0001H23.75C24.413 30.0001 25.0489 29.7367 25.5178 29.2679C25.9866 28.7991 26.25 28.1632 26.25 27.5001V26.2501M25 11.2501L28.75 15.0001M30.4813 13.2314C30.9736 12.7391 31.2501 12.0714 31.2501 11.3751C31.2501 10.6789 30.9736 10.0112 30.4813 9.51888C29.9889 9.02658 29.3212 8.75 28.625 8.75C27.9288 8.75 27.2611 9.02658 26.7688 9.51888L16.25 20.0001V23.7501H20L30.4813 13.2314Z" stroke="#A32E8C" stroke-width="2" stroke-linecap="round" stroke-linejoin="round"/>
</svg>
