<svg width="140" height="140" viewBox="0 0 140 140" fill="none" xmlns="http://www.w3.org/2000/svg">
<path d="M70 46.8329V122.125M70 46.8329C67.905 38.1998 64.2978 30.8193 59.6488 25.6537C54.9997 20.4881 49.5246 17.7773 43.9375 17.8746C40.0974 17.8746 36.4146 19.4001 33.6992 22.1155C30.9838 24.8308 29.4583 28.5137 29.4583 32.3538C29.4583 36.1939 30.9838 39.8767 33.6992 42.5921C36.4146 45.3075 40.0974 46.8329 43.9375 46.8329M70 46.8329C72.095 38.1998 75.7022 30.8193 80.3512 25.6537C85.0003 20.4881 90.4754 17.7773 96.0625 17.8746C99.9026 17.8746 103.585 19.4001 106.301 22.1155C109.016 24.8308 110.542 28.5137 110.542 32.3538C110.542 36.1939 109.016 39.8767 106.301 42.5921C103.585 45.3075 99.9026 46.8329 96.0625 46.8329M110.542 69.9995V110.541C110.542 113.613 109.321 116.56 107.149 118.732C104.977 120.904 102.03 122.125 98.9583 122.125H41.0417C37.9696 122.125 35.0233 120.904 32.851 118.732C30.6787 116.56 29.4583 113.613 29.4583 110.541V69.9995M17.875 52.6245C17.875 51.0885 18.4852 49.6154 19.5713 48.5292C20.6575 47.4431 22.1306 46.8329 23.6667 46.8329H116.333C117.869 46.8329 119.343 47.4431 120.429 48.5292C121.515 49.6154 122.125 51.0885 122.125 52.6245V64.2079C122.125 65.7439 121.515 67.2171 120.429 68.3032C119.343 69.3894 117.869 69.9995 116.333 69.9995H23.6667C22.1306 69.9995 20.6575 69.3894 19.5713 68.3032C18.4852 67.2171 17.875 65.7439 17.875 64.2079V52.6245Z" stroke="#A32E8C" stroke-width="7" stroke-linecap="round" stroke-linejoin="round"/>
</svg>
