<svg width="140" height="140" viewBox="0 0 140 140" fill="none" xmlns="http://www.w3.org/2000/svg">
<path d="M113.438 79.1041L70 122.125L53.2274 105.514M17.7997 58.5784C17.7513 52.4703 19.6356 46.5033 23.1832 41.5307C26.7308 36.5581 31.7599 32.8347 37.5513 30.8929C43.3428 28.951 49.5999 28.8903 55.428 30.7192C61.2561 32.5482 66.3566 36.1733 70 41.076C72.3951 37.8907 75.4218 35.2341 78.8908 33.2724C82.3598 31.3106 86.1964 30.086 90.1604 29.6752C94.1245 29.2644 98.1306 29.6763 101.928 30.885C105.726 32.0937 109.233 34.0732 112.23 36.6996C115.228 39.3261 117.651 42.543 119.347 46.1489C121.044 49.7548 121.979 53.6722 122.092 57.6559C122.205 61.6395 121.495 65.6037 120.006 69.3003C118.517 72.9968 116.281 76.3463 113.438 79.1389M17.8752 75.7913H29.4585L41.0418 93.1663L52.6252 58.4163L58.4168 75.7913H75.7918" stroke="#A32E8C" stroke-width="7" stroke-linecap="round" stroke-linejoin="round"/>
</svg>
