<svg width="79" height="78" viewBox="0 0 79 78" fill="none" xmlns="http://www.w3.org/2000/svg">
<rect x="1.09961" y="0.5" width="77" height="77" rx="7.5" fill="white"/>
<path d="M58.0163 36.1663C59.0108 33.2848 59.2233 29.831 59.433 25.6433V21.9997H53.041C45.0226 21.9997 39.9623 24.2777 37.061 27.8817M20.4888 36.189C20.0908 34.3158 19.8492 32.4129 19.7663 30.4997V27.6663H24.7388C27.5154 27.6663 29.8416 28.0177 31.7626 28.658M28.2663 27.6663L31.0996 16.333L42.4329 23.4163M42.4329 36.1663V34.7497C42.4329 32.8711 41.6867 31.0694 40.3583 29.741C39.0299 28.4126 37.2282 27.6663 35.3496 27.6663C33.471 27.6663 31.6693 28.4126 30.3409 29.741C29.0126 31.0694 28.2663 32.8711 28.2663 34.7497V36.1663M16.9329 36.1663H62.2663C63.0177 36.1663 63.7384 36.4649 64.2697 36.9962C64.8011 37.5276 65.0996 38.2482 65.0996 38.9997V40.4163C65.0996 44.6663 57.9681 56.2065 53.7663 58.833V61.6663C53.7663 62.4178 53.4678 63.1385 52.9364 63.6698C52.4051 64.2012 51.6844 64.4997 50.9329 64.4997H28.2663C27.5148 64.4997 26.7942 64.2012 26.2628 63.6698C25.7315 63.1385 25.4329 62.4178 25.4329 61.6663V58.833C20.6531 55.8467 14.0996 44.6663 14.0996 40.4163V38.9997C14.0996 38.2482 14.3981 37.5276 14.9295 36.9962C15.4608 36.4649 16.1815 36.1663 16.9329 36.1663Z" stroke="#A32E8C" stroke-width="4" stroke-linecap="round" stroke-linejoin="round"/>
<rect x="1.09961" y="0.5" width="77" height="77" rx="7.5" stroke="#A32E8C"/>
</svg>
