<svg width="40" height="40" viewBox="0 0 40 40" fill="none" xmlns="http://www.w3.org/2000/svg">
<rect width="40" height="40" rx="5" fill="#F5DFDF"/>
<path d="M10 13.75H30M11.25 13.75L12.5 28.75C12.5 29.413 12.7634 30.0489 13.2322 30.5178C13.7011 30.9866 14.337 31.25 15 31.25H25C25.663 31.25 26.2989 30.9866 26.7678 30.5178C27.2366 30.0489 27.5 29.413 27.5 28.75L28.75 13.75M16.25 13.75V10C16.25 9.66848 16.3817 9.35054 16.6161 9.11612C16.8505 8.8817 17.1685 8.75 17.5 8.75H22.5C22.8315 8.75 23.1495 8.8817 23.3839 9.11612C23.6183 9.35054 23.75 9.66848 23.75 10V13.75M17.5 20L22.5 25M22.5 20L17.5 25" stroke="#E14747" stroke-width="2" stroke-linecap="round" stroke-linejoin="round"/>
</svg>
