<svg width="20" height="22" viewBox="0 0 20 22" fill="none" xmlns="http://www.w3.org/2000/svg">
<path d="M8.4834 19.25H3.4834C2.95297 19.25 2.44426 19.0393 2.06918 18.6642C1.69411 18.2891 1.4834 17.7804 1.4834 17.25V11.25C1.4834 10.7196 1.69411 10.2109 2.06918 9.83579C2.44426 9.46071 2.95297 9.25 3.4834 9.25H13.4834C14.0474 9.25 14.5574 9.484 14.9204 9.86M4.4834 9.25V5.25C4.4834 4.18913 4.90483 3.17172 5.65497 2.42157C6.40512 1.67143 7.42253 1.25 8.4834 1.25C9.54426 1.25 10.5617 1.67143 11.3118 2.42157C12.062 3.17172 12.4834 4.18913 12.4834 5.25V9.25M15.4844 19.25C14.9539 19.25 14.4452 19.0393 14.0702 18.6642C13.6951 18.2891 13.4844 17.7804 13.4844 17.25C13.4844 16.7196 13.6951 16.2109 14.0702 15.8358C14.4452 15.4607 14.9539 15.25 15.4844 15.25M15.4844 19.25C16.0148 19.25 16.5235 19.0393 16.8986 18.6642C17.2737 18.2891 17.4844 17.7804 17.4844 17.25C17.4844 16.7196 17.2737 16.2109 16.8986 15.8358C16.5235 15.4607 16.0148 15.25 15.4844 15.25M15.4844 19.25V20.75M15.4844 15.25V13.75M18.5154 15.5L17.2164 16.25M13.7534 18.25L12.4534 19M12.4534 15.5L13.7534 16.25M17.2164 18.25L18.5164 19M7.4834 14.25C7.4834 14.5152 7.58876 14.7696 7.77629 14.9571C7.96383 15.1446 8.21818 15.25 8.4834 15.25C8.74861 15.25 9.00297 15.1446 9.19051 14.9571C9.37804 14.7696 9.4834 14.5152 9.4834 14.25C9.4834 13.9848 9.37804 13.7304 9.19051 13.5429C9.00297 13.3554 8.74861 13.25 8.4834 13.25C8.21818 13.25 7.96383 13.3554 7.77629 13.5429C7.58876 13.7304 7.4834 13.9848 7.4834 14.25Z" stroke="#A32E8C" stroke-width="2" stroke-linecap="round" stroke-linejoin="round"/>
</svg>
