<svg width="396" height="334" viewBox="0 0 396 334" fill="none" xmlns="http://www.w3.org/2000/svg">
<path d="M161.937 82C137.95 82 117.5 99.9303 117.5 123.205C117.5 139.265 125.024 152.781 134.999 163.979C144.947 175.143 157.778 184.513 169.366 192.357L189.376 205.891C190.446 206.614 191.708 207 193 207C194.292 207 195.554 206.614 196.624 205.891L216.634 192.357C228.23 184.513 241.053 175.143 250.993 163.979C260.976 152.781 268.5 139.265 268.5 123.205C268.5 99.9303 248.05 82 224.063 82C211.689 82 200.809 87.7929 193 95.2925C185.191 87.7929 174.302 82 161.937 82Z" fill="#A32E8C"/>
<path d="M167.359 141.639L187.511 161.583L228.652 120.862" stroke="white" stroke-width="9.03409" stroke-linecap="round" stroke-linejoin="round"/>
<path d="M268.875 220.608C274.85 221.977 280.179 225.314 283.988 230.071C286.92 235.193 288.721 240.873 289.272 246.734" stroke="#BAE0DB" stroke-width="3.61364" stroke-linecap="round" stroke-linejoin="round"/>
<path d="M116.892 173.506C112.492 178.519 100.974 187.517 90.0951 183.4C76.4971 178.258 76.8962 170.338 81.2965 167.172C85.6969 164.006 91.6894 169.151 92.895 173.506C94.1005 177.861 92.0947 192.505 81.2965 198.047C70.4984 203.589 56.1001 200.818 52.5 198.047" stroke="#EFE0FF" stroke-width="3.61364" stroke-linecap="round" stroke-linejoin="round"/>
<path d="M290.272 33.3831C285.076 32.7228 274.194 35.757 272.274 53.1749C270.353 70.5927 254.945 74.1536 247.479 73.7566" stroke="#A32E8C" stroke-width="3.61364" stroke-linecap="round" stroke-linejoin="round"/>
<path d="M94.2902 114.638C99.5915 114.638 103.889 110.385 103.889 105.138C103.889 99.8914 99.5915 95.6382 94.2902 95.6382C88.989 95.6382 84.6914 99.8914 84.6914 105.138C84.6914 110.385 88.989 114.638 94.2902 114.638Z" fill="#33F3ED"/>
<path d="M152.338 38.5289C156.756 38.5289 160.337 34.9848 160.337 30.613C160.337 26.2412 156.756 22.6971 152.338 22.6971C147.921 22.6971 144.34 26.2412 144.34 30.613C144.34 34.9848 147.921 38.5289 152.338 38.5289Z" fill="#FFE7EE"/>
<path d="M176.733 50.3501C179.369 50.3501 181.506 48.2354 181.506 45.6269C181.506 43.0183 179.369 40.9037 176.733 40.9037C174.098 40.9037 171.961 43.0183 171.961 45.6269C171.961 48.2354 174.098 50.3501 176.733 50.3501Z" fill="#FFE7EE"/>
<path d="M304.269 143.786C309.018 143.786 312.868 139.976 312.868 135.276C312.868 130.575 309.018 126.765 304.269 126.765C299.52 126.765 295.67 130.575 295.67 135.276C295.67 139.976 299.52 143.786 304.269 143.786Z" fill="#EFE0FF"/>
<path d="M125.494 240.367C130.243 240.367 134.093 236.557 134.093 231.857C134.093 227.156 130.243 223.346 125.494 223.346C120.744 223.346 116.895 227.156 116.895 231.857C116.895 236.557 120.744 240.367 125.494 240.367Z" fill="#FF7BD2"/>
<path d="M232.677 265.306C237.426 265.306 241.276 261.495 241.276 256.795C241.276 252.095 237.426 248.285 232.677 248.285C227.928 248.285 224.078 252.095 224.078 256.795C224.078 261.495 227.928 265.306 232.677 265.306Z" fill="#F9D2DD"/>
<path d="M206.077 253.006C208.713 253.006 210.849 250.892 210.849 248.283C210.849 245.674 208.713 243.56 206.077 243.56C203.441 243.56 201.305 245.674 201.305 248.283C201.305 250.892 203.441 253.006 206.077 253.006Z" fill="#A32E8C"/>
<path d="M3.21946 310.545H6.21094L10.7706 318.48H10.9581L15.5178 310.545H18.5092L12.1768 321.148V328H9.55185V321.148L3.21946 310.545ZM24.1491 328.264C22.9219 328.264 21.8509 327.983 20.9361 327.42C20.0213 326.858 19.3111 326.071 18.8054 325.06C18.2997 324.048 18.0469 322.866 18.0469 321.514C18.0469 320.156 18.2997 318.969 18.8054 317.952C19.3111 316.935 20.0213 316.145 20.9361 315.582C21.8509 315.02 22.9219 314.739 24.1491 314.739C25.3764 314.739 26.4474 315.02 27.3622 315.582C28.277 316.145 28.9872 316.935 29.4929 317.952C29.9986 318.969 30.2514 320.156 30.2514 321.514C30.2514 322.866 29.9986 324.048 29.4929 325.06C28.9872 326.071 28.277 326.858 27.3622 327.42C26.4474 327.983 25.3764 328.264 24.1491 328.264ZM24.1577 326.125C24.9531 326.125 25.6122 325.915 26.1349 325.494C26.6577 325.074 27.044 324.514 27.294 323.815C27.5497 323.116 27.6776 322.347 27.6776 321.506C27.6776 320.67 27.5497 319.903 27.294 319.205C27.044 318.5 26.6577 317.935 26.1349 317.509C25.6122 317.082 24.9531 316.869 24.1577 316.869C23.3565 316.869 22.6918 317.082 22.1634 317.509C21.6406 317.935 21.2514 318.5 20.9957 319.205C20.7457 319.903 20.6207 320.67 20.6207 321.506C20.6207 322.347 20.7457 323.116 20.9957 323.815C21.2514 324.514 21.6406 325.074 22.1634 325.494C22.6918 325.915 23.3565 326.125 24.1577 326.125ZM41.3885 322.571V314.909H43.9453V328H41.4396V325.733H41.3033C41.0021 326.432 40.5192 327.014 39.8544 327.48C39.1953 327.94 38.3743 328.17 37.3913 328.17C36.5504 328.17 35.8061 327.986 35.1584 327.616C34.5163 327.241 34.0107 326.688 33.6413 325.955C33.2777 325.222 33.0959 324.315 33.0959 323.236V314.909H35.6442V322.929C35.6442 323.821 35.8913 324.531 36.3857 325.06C36.88 325.588 37.522 325.852 38.3118 325.852C38.7891 325.852 39.2635 325.733 39.7351 325.494C40.2124 325.256 40.6072 324.895 40.9197 324.412C41.2379 323.929 41.3942 323.315 41.3885 322.571ZM47.3693 328V314.909H49.8324V316.989H49.9688C50.2074 316.284 50.6278 315.73 51.2301 315.327C51.8381 314.918 52.5256 314.713 53.2926 314.713C53.4517 314.713 53.6392 314.719 53.8551 314.73C54.0767 314.741 54.25 314.756 54.375 314.773V317.21C54.2727 317.182 54.0909 317.151 53.8295 317.116C53.5682 317.077 53.3068 317.057 53.0455 317.057C52.4432 317.057 51.9063 317.185 51.4347 317.44C50.9688 317.69 50.5994 318.04 50.3267 318.489C50.054 318.932 49.9176 319.437 49.9176 320.006V328H47.3693ZM62.9318 332.909V314.909H65.4205V317.031H65.6335C65.7813 316.759 65.9943 316.443 66.2727 316.085C66.5511 315.727 66.9375 315.415 67.4318 315.148C67.9261 314.875 68.5795 314.739 69.392 314.739C70.4489 314.739 71.392 315.006 72.2216 315.54C73.0511 316.074 73.7017 316.844 74.1733 317.849C74.6506 318.855 74.8892 320.065 74.8892 321.48C74.8892 322.895 74.6534 324.108 74.1818 325.119C73.7102 326.125 73.0625 326.901 72.2386 327.446C71.4148 327.986 70.4744 328.256 69.4176 328.256C68.6222 328.256 67.9716 328.122 67.4659 327.855C66.9659 327.588 66.5739 327.276 66.2898 326.918C66.0057 326.56 65.7869 326.241 65.6335 325.963H65.4801V332.909H62.9318ZM65.429 321.455C65.429 322.375 65.5625 323.182 65.8295 323.875C66.0966 324.568 66.483 325.111 66.9886 325.503C67.4943 325.889 68.1136 326.082 68.8466 326.082C69.608 326.082 70.2443 325.881 70.7557 325.477C71.267 325.068 71.6534 324.514 71.9148 323.815C72.1818 323.116 72.3153 322.33 72.3153 321.455C72.3153 320.591 72.1847 319.815 71.9233 319.128C71.6676 318.44 71.2813 317.898 70.7642 317.5C70.2528 317.102 69.6136 316.903 68.8466 316.903C68.108 316.903 67.483 317.094 66.9716 317.474C66.4659 317.855 66.0824 318.386 65.821 319.068C65.5597 319.75 65.429 320.545 65.429 321.455ZM81.554 328.29C80.7244 328.29 79.9744 328.136 79.304 327.83C78.6335 327.517 78.1023 327.065 77.7102 326.474C77.3239 325.884 77.1307 325.159 77.1307 324.301C77.1307 323.562 77.2727 322.955 77.5568 322.477C77.8409 322 78.2244 321.622 78.7074 321.344C79.1903 321.065 79.7301 320.855 80.3267 320.713C80.9233 320.571 81.5313 320.463 82.1506 320.389C82.9347 320.298 83.571 320.224 84.0597 320.168C84.5483 320.105 84.9034 320.006 85.125 319.869C85.3466 319.733 85.4574 319.511 85.4574 319.205V319.145C85.4574 318.401 85.2472 317.824 84.8267 317.415C84.4119 317.006 83.7926 316.801 82.9688 316.801C82.1108 316.801 81.4347 316.991 80.9403 317.372C80.4517 317.747 80.1136 318.165 79.9261 318.625L77.5312 318.08C77.8153 317.284 78.2301 316.642 78.7756 316.153C79.3267 315.659 79.9602 315.301 80.6761 315.08C81.392 314.852 82.1449 314.739 82.9347 314.739C83.4574 314.739 84.0114 314.801 84.5966 314.926C85.1875 315.045 85.7386 315.267 86.25 315.591C86.767 315.915 87.1903 316.378 87.5199 316.98C87.8494 317.577 88.0142 318.352 88.0142 319.307V328H85.5256V326.21H85.4233C85.2585 326.54 85.0114 326.864 84.6818 327.182C84.3523 327.5 83.929 327.764 83.4119 327.974C82.8949 328.185 82.2756 328.29 81.554 328.29ZM82.108 326.244C82.8125 326.244 83.4148 326.105 83.9148 325.827C84.4205 325.548 84.804 325.185 85.0653 324.736C85.3324 324.281 85.4659 323.795 85.4659 323.278V321.591C85.375 321.682 85.1989 321.767 84.9375 321.847C84.6818 321.92 84.3892 321.986 84.0597 322.043C83.7301 322.094 83.4091 322.142 83.0966 322.188C82.7841 322.227 82.5227 322.261 82.3125 322.29C81.8182 322.352 81.3665 322.457 80.9574 322.605C80.554 322.753 80.2301 322.966 79.9858 323.244C79.7472 323.517 79.6278 323.881 79.6278 324.335C79.6278 324.966 79.8608 325.443 80.3267 325.767C80.7926 326.085 81.3864 326.244 82.108 326.244ZM101.218 318.105L98.9084 318.514C98.8118 318.219 98.6584 317.937 98.4482 317.67C98.2436 317.403 97.9652 317.185 97.6129 317.014C97.2607 316.844 96.8203 316.759 96.2919 316.759C95.5703 316.759 94.968 316.92 94.4851 317.244C94.0021 317.562 93.7607 317.974 93.7607 318.48C93.7607 318.918 93.9226 319.27 94.2464 319.537C94.5703 319.804 95.093 320.023 95.8146 320.193L97.8942 320.67C99.0987 320.949 99.9964 321.378 100.587 321.957C101.178 322.537 101.474 323.29 101.474 324.216C101.474 325 101.246 325.699 100.792 326.312C100.343 326.92 99.7152 327.398 98.9084 327.744C98.1072 328.091 97.1783 328.264 96.1214 328.264C94.6555 328.264 93.4595 327.952 92.5334 327.327C91.6072 326.696 91.0391 325.801 90.8288 324.642L93.2919 324.267C93.4453 324.909 93.7607 325.395 94.2379 325.724C94.7152 326.048 95.3374 326.21 96.1044 326.21C96.9396 326.21 97.6072 326.037 98.1072 325.69C98.6072 325.338 98.8572 324.909 98.8572 324.403C98.8572 323.994 98.7038 323.651 98.397 323.372C98.0959 323.094 97.6328 322.884 97.0078 322.741L94.7919 322.256C93.5703 321.977 92.6669 321.534 92.0817 320.926C91.5021 320.318 91.2124 319.548 91.2124 318.616C91.2124 317.844 91.4283 317.168 91.8601 316.588C92.2919 316.009 92.8885 315.557 93.6499 315.233C94.4112 314.903 95.2834 314.739 96.2663 314.739C97.6811 314.739 98.7947 315.045 99.6072 315.659C100.42 316.267 100.957 317.082 101.218 318.105ZM114.085 318.105L111.776 318.514C111.679 318.219 111.526 317.937 111.315 317.67C111.111 317.403 110.832 317.185 110.48 317.014C110.128 316.844 109.688 316.759 109.159 316.759C108.438 316.759 107.835 316.92 107.352 317.244C106.869 317.562 106.628 317.974 106.628 318.48C106.628 318.918 106.79 319.27 107.114 319.537C107.438 319.804 107.96 320.023 108.682 320.193L110.761 320.67C111.966 320.949 112.864 321.378 113.455 321.957C114.045 322.537 114.341 323.29 114.341 324.216C114.341 325 114.114 325.699 113.659 326.312C113.21 326.92 112.582 327.398 111.776 327.744C110.974 328.091 110.045 328.264 108.989 328.264C107.523 328.264 106.327 327.952 105.401 327.327C104.474 326.696 103.906 325.801 103.696 324.642L106.159 324.267C106.313 324.909 106.628 325.395 107.105 325.724C107.582 326.048 108.205 326.21 108.972 326.21C109.807 326.21 110.474 326.037 110.974 325.69C111.474 325.338 111.724 324.909 111.724 324.403C111.724 323.994 111.571 323.651 111.264 323.372C110.963 323.094 110.5 322.884 109.875 322.741L107.659 322.256C106.438 321.977 105.534 321.534 104.949 320.926C104.369 320.318 104.08 319.548 104.08 318.616C104.08 317.844 104.295 317.168 104.727 316.588C105.159 316.009 105.756 315.557 106.517 315.233C107.278 314.903 108.151 314.739 109.134 314.739C110.548 314.739 111.662 315.045 112.474 315.659C113.287 316.267 113.824 317.082 114.085 318.105ZM119.981 328L116.129 314.909H118.762L121.327 324.523H121.455L124.029 314.909H126.663L129.219 324.48H129.347L131.896 314.909H134.529L130.685 328H128.086L125.427 318.548H125.231L122.572 328H119.981ZM142.063 328.264C140.836 328.264 139.765 327.983 138.85 327.42C137.935 326.858 137.225 326.071 136.719 325.06C136.214 324.048 135.961 322.866 135.961 321.514C135.961 320.156 136.214 318.969 136.719 317.952C137.225 316.935 137.935 316.145 138.85 315.582C139.765 315.02 140.836 314.739 142.063 314.739C143.29 314.739 144.362 315.02 145.276 315.582C146.191 316.145 146.901 316.935 147.407 317.952C147.913 318.969 148.165 320.156 148.165 321.514C148.165 322.866 147.913 324.048 147.407 325.06C146.901 326.071 146.191 326.858 145.276 327.42C144.362 327.983 143.29 328.264 142.063 328.264ZM142.072 326.125C142.867 326.125 143.526 325.915 144.049 325.494C144.572 325.074 144.958 324.514 145.208 323.815C145.464 323.116 145.592 322.347 145.592 321.506C145.592 320.67 145.464 319.903 145.208 319.205C144.958 318.5 144.572 317.935 144.049 317.509C143.526 317.082 142.867 316.869 142.072 316.869C141.271 316.869 140.606 317.082 140.077 317.509C139.555 317.935 139.165 318.5 138.91 319.205C138.66 319.903 138.535 320.67 138.535 321.506C138.535 322.347 138.66 323.116 138.91 323.815C139.165 324.514 139.555 325.074 140.077 325.494C140.606 325.915 141.271 326.125 142.072 326.125ZM151.01 328V314.909H153.473V316.989H153.609C153.848 316.284 154.268 315.73 154.871 315.327C155.479 314.918 156.166 314.713 156.933 314.713C157.092 314.713 157.28 314.719 157.496 314.73C157.717 314.741 157.891 314.756 158.016 314.773V317.21C157.913 317.182 157.732 317.151 157.47 317.116C157.209 317.077 156.947 317.057 156.686 317.057C156.084 317.057 155.547 317.185 155.075 317.44C154.609 317.69 154.24 318.04 153.967 318.489C153.695 318.932 153.558 319.437 153.558 320.006V328H151.01ZM164.653 328.256C163.596 328.256 162.653 327.986 161.823 327.446C160.999 326.901 160.352 326.125 159.88 325.119C159.414 324.108 159.181 322.895 159.181 321.48C159.181 320.065 159.417 318.855 159.888 317.849C160.366 316.844 161.019 316.074 161.849 315.54C162.678 315.006 163.619 314.739 164.67 314.739C165.482 314.739 166.136 314.875 166.63 315.148C167.13 315.415 167.516 315.727 167.789 316.085C168.067 316.443 168.283 316.759 168.437 317.031H168.59V310.545H171.138V328H168.65V325.963H168.437C168.283 326.241 168.062 326.56 167.772 326.918C167.488 327.276 167.096 327.588 166.596 327.855C166.096 328.122 165.448 328.256 164.653 328.256ZM165.215 326.082C165.948 326.082 166.567 325.889 167.073 325.503C167.585 325.111 167.971 324.568 168.232 323.875C168.499 323.182 168.633 322.375 168.633 321.455C168.633 320.545 168.502 319.75 168.241 319.068C167.979 318.386 167.596 317.855 167.09 317.474C166.585 317.094 165.96 316.903 165.215 316.903C164.448 316.903 163.809 317.102 163.298 317.5C162.786 317.898 162.4 318.44 162.138 319.128C161.883 319.815 161.755 320.591 161.755 321.455C161.755 322.33 161.886 323.116 162.147 323.815C162.408 324.514 162.795 325.068 163.306 325.477C163.823 325.881 164.46 326.082 165.215 326.082ZM183.675 320.227V328H181.127V310.545H183.641V317.04H183.803C184.11 316.335 184.579 315.776 185.21 315.361C185.84 314.946 186.664 314.739 187.681 314.739C188.579 314.739 189.363 314.923 190.033 315.293C190.71 315.662 191.232 316.213 191.602 316.946C191.977 317.673 192.164 318.582 192.164 319.673V328H189.616V319.98C189.616 319.02 189.369 318.276 188.874 317.747C188.38 317.213 187.692 316.946 186.812 316.946C186.21 316.946 185.67 317.074 185.192 317.33C184.721 317.585 184.349 317.96 184.076 318.455C183.809 318.943 183.675 319.534 183.675 320.227ZM199.374 328.29C198.545 328.29 197.795 328.136 197.124 327.83C196.454 327.517 195.923 327.065 195.531 326.474C195.144 325.884 194.951 325.159 194.951 324.301C194.951 323.562 195.093 322.955 195.377 322.477C195.661 322 196.045 321.622 196.528 321.344C197.011 321.065 197.55 320.855 198.147 320.713C198.744 320.571 199.352 320.463 199.971 320.389C200.755 320.298 201.391 320.224 201.88 320.168C202.369 320.105 202.724 320.006 202.945 319.869C203.167 319.733 203.278 319.511 203.278 319.205V319.145C203.278 318.401 203.067 317.824 202.647 317.415C202.232 317.006 201.613 316.801 200.789 316.801C199.931 316.801 199.255 316.991 198.761 317.372C198.272 317.747 197.934 318.165 197.746 318.625L195.352 318.08C195.636 317.284 196.05 316.642 196.596 316.153C197.147 315.659 197.781 315.301 198.496 315.08C199.212 314.852 199.965 314.739 200.755 314.739C201.278 314.739 201.832 314.801 202.417 314.926C203.008 315.045 203.559 315.267 204.07 315.591C204.587 315.915 205.011 316.378 205.34 316.98C205.67 317.577 205.835 318.352 205.835 319.307V328H203.346V326.21H203.244C203.079 326.54 202.832 326.864 202.502 327.182C202.173 327.5 201.749 327.764 201.232 327.974C200.715 328.185 200.096 328.29 199.374 328.29ZM199.928 326.244C200.633 326.244 201.235 326.105 201.735 325.827C202.241 325.548 202.624 325.185 202.886 324.736C203.153 324.281 203.286 323.795 203.286 323.278V321.591C203.195 321.682 203.019 321.767 202.758 321.847C202.502 321.92 202.21 321.986 201.88 322.043C201.55 322.094 201.229 322.142 200.917 322.188C200.604 322.227 200.343 322.261 200.133 322.29C199.638 322.352 199.187 322.457 198.778 322.605C198.374 322.753 198.05 322.966 197.806 323.244C197.567 323.517 197.448 323.881 197.448 324.335C197.448 324.966 197.681 325.443 198.147 325.767C198.613 326.085 199.207 326.244 199.928 326.244ZM219.038 318.105L216.729 318.514C216.632 318.219 216.479 317.937 216.268 317.67C216.064 317.403 215.786 317.185 215.433 317.014C215.081 316.844 214.641 316.759 214.112 316.759C213.391 316.759 212.788 316.92 212.305 317.244C211.822 317.562 211.581 317.974 211.581 318.48C211.581 318.918 211.743 319.27 212.067 319.537C212.391 319.804 212.913 320.023 213.635 320.193L215.714 320.67C216.919 320.949 217.817 321.378 218.408 321.957C218.999 322.537 219.294 323.29 219.294 324.216C219.294 325 219.067 325.699 218.612 326.312C218.163 326.92 217.536 327.398 216.729 327.744C215.928 328.091 214.999 328.264 213.942 328.264C212.476 328.264 211.28 327.952 210.354 327.327C209.428 326.696 208.859 325.801 208.649 324.642L211.112 324.267C211.266 324.909 211.581 325.395 212.058 325.724C212.536 326.048 213.158 326.21 213.925 326.21C214.76 326.21 215.428 326.037 215.928 325.69C216.428 325.338 216.678 324.909 216.678 324.403C216.678 323.994 216.524 323.651 216.217 323.372C215.916 323.094 215.453 322.884 214.828 322.741L212.612 322.256C211.391 321.977 210.487 321.534 209.902 320.926C209.322 320.318 209.033 319.548 209.033 318.616C209.033 317.844 209.249 317.168 209.68 316.588C210.112 316.009 210.709 315.557 211.47 315.233C212.232 314.903 213.104 314.739 214.087 314.739C215.501 314.739 216.615 315.045 217.428 315.659C218.24 316.267 218.777 317.082 219.038 318.105ZM228.652 328V310.545H231.2V317.031H231.354C231.501 316.759 231.714 316.443 231.993 316.085C232.271 315.727 232.658 315.415 233.152 315.148C233.646 314.875 234.3 314.739 235.112 314.739C236.169 314.739 237.112 315.006 237.942 315.54C238.771 316.074 239.422 316.844 239.893 317.849C240.371 318.855 240.609 320.065 240.609 321.48C240.609 322.895 240.374 324.108 239.902 325.119C239.43 326.125 238.783 326.901 237.959 327.446C237.135 327.986 236.195 328.256 235.138 328.256C234.342 328.256 233.692 328.122 233.186 327.855C232.686 327.588 232.294 327.276 232.01 326.918C231.726 326.56 231.507 326.241 231.354 325.963H231.141V328H228.652ZM231.149 321.455C231.149 322.375 231.283 323.182 231.55 323.875C231.817 324.568 232.203 325.111 232.709 325.503C233.214 325.889 233.834 326.082 234.567 326.082C235.328 326.082 235.964 325.881 236.476 325.477C236.987 325.068 237.374 324.514 237.635 323.815C237.902 323.116 238.036 322.33 238.036 321.455C238.036 320.591 237.905 319.815 237.643 319.128C237.388 318.44 237.001 317.898 236.484 317.5C235.973 317.102 235.334 316.903 234.567 316.903C233.828 316.903 233.203 317.094 232.692 317.474C232.186 317.855 231.803 318.386 231.541 319.068C231.28 319.75 231.149 320.545 231.149 321.455ZM249.113 328.264C247.823 328.264 246.712 327.989 245.781 327.438C244.854 326.881 244.138 326.099 243.633 325.094C243.133 324.082 242.883 322.898 242.883 321.54C242.883 320.199 243.133 319.017 243.633 317.994C244.138 316.972 244.843 316.173 245.746 315.599C246.656 315.026 247.718 314.739 248.934 314.739C249.673 314.739 250.388 314.861 251.082 315.105C251.775 315.349 252.397 315.733 252.948 316.256C253.499 316.778 253.934 317.457 254.252 318.293C254.57 319.122 254.729 320.131 254.729 321.318V322.222H244.323V320.312H252.232C252.232 319.642 252.096 319.048 251.823 318.531C251.55 318.009 251.167 317.597 250.673 317.295C250.184 316.994 249.61 316.844 248.951 316.844C248.235 316.844 247.61 317.02 247.076 317.372C246.548 317.719 246.138 318.173 245.849 318.736C245.565 319.293 245.423 319.898 245.423 320.551V322.043C245.423 322.918 245.576 323.662 245.883 324.276C246.195 324.889 246.63 325.358 247.187 325.682C247.744 326 248.394 326.159 249.138 326.159C249.621 326.159 250.062 326.091 250.46 325.955C250.857 325.812 251.201 325.602 251.491 325.324C251.781 325.045 252.002 324.702 252.156 324.293L254.567 324.727C254.374 325.437 254.028 326.06 253.528 326.594C253.033 327.122 252.411 327.534 251.661 327.83C250.917 328.119 250.067 328.264 249.113 328.264ZM263.199 328.264C261.909 328.264 260.798 327.989 259.866 327.438C258.94 326.881 258.224 326.099 257.719 325.094C257.219 324.082 256.969 322.898 256.969 321.54C256.969 320.199 257.219 319.017 257.719 317.994C258.224 316.972 258.929 316.173 259.832 315.599C260.741 315.026 261.804 314.739 263.02 314.739C263.759 314.739 264.474 314.861 265.168 315.105C265.861 315.349 266.483 315.733 267.034 316.256C267.585 316.778 268.02 317.457 268.338 318.293C268.656 319.122 268.815 320.131 268.815 321.318V322.222H258.409V320.312H266.318C266.318 319.642 266.182 319.048 265.909 318.531C265.636 318.009 265.253 317.597 264.759 317.295C264.27 316.994 263.696 316.844 263.037 316.844C262.321 316.844 261.696 317.02 261.162 317.372C260.634 317.719 260.224 318.173 259.935 318.736C259.651 319.293 259.509 319.898 259.509 320.551V322.043C259.509 322.918 259.662 323.662 259.969 324.276C260.281 324.889 260.716 325.358 261.273 325.682C261.83 326 262.48 326.159 263.224 326.159C263.707 326.159 264.148 326.091 264.545 325.955C264.943 325.812 265.287 325.602 265.577 325.324C265.866 325.045 266.088 324.702 266.241 324.293L268.653 324.727C268.46 325.437 268.114 326.06 267.614 326.594C267.119 327.122 266.497 327.534 265.747 327.83C265.003 328.119 264.153 328.264 263.199 328.264ZM274.191 320.227V328H271.643V314.909H274.089V317.04H274.251C274.552 316.347 275.023 315.79 275.665 315.369C276.313 314.949 277.129 314.739 278.112 314.739C279.004 314.739 279.785 314.926 280.455 315.301C281.126 315.67 281.646 316.222 282.015 316.955C282.384 317.687 282.569 318.594 282.569 319.673V328H280.021V319.98C280.021 319.031 279.773 318.29 279.279 317.756C278.785 317.216 278.106 316.946 277.242 316.946C276.651 316.946 276.126 317.074 275.665 317.33C275.211 317.585 274.85 317.96 274.583 318.455C274.322 318.943 274.191 319.534 274.191 320.227ZM300.631 322.571V314.909H303.188V328H300.682V325.733H300.545C300.244 326.432 299.761 327.014 299.097 327.48C298.438 327.94 297.616 328.17 296.634 328.17C295.793 328.17 295.048 327.986 294.401 327.616C293.759 327.241 293.253 326.688 292.884 325.955C292.52 325.222 292.338 324.315 292.338 323.236V314.909H294.886V322.929C294.886 323.821 295.134 324.531 295.628 325.06C296.122 325.588 296.764 325.852 297.554 325.852C298.031 325.852 298.506 325.733 298.977 325.494C299.455 325.256 299.849 324.895 300.162 324.412C300.48 323.929 300.636 323.315 300.631 322.571ZM306.612 332.909V314.909H309.1V317.031H309.313C309.461 316.759 309.674 316.443 309.952 316.085C310.231 315.727 310.617 315.415 311.112 315.148C311.606 314.875 312.259 314.739 313.072 314.739C314.129 314.739 315.072 315.006 315.901 315.54C316.731 316.074 317.381 316.844 317.853 317.849C318.33 318.855 318.569 320.065 318.569 321.48C318.569 322.895 318.333 324.108 317.862 325.119C317.39 326.125 316.742 326.901 315.918 327.446C315.094 327.986 314.154 328.256 313.097 328.256C312.302 328.256 311.651 328.122 311.146 327.855C310.646 327.588 310.254 327.276 309.969 326.918C309.685 326.56 309.467 326.241 309.313 325.963H309.16V332.909H306.612ZM309.109 321.455C309.109 322.375 309.242 323.182 309.509 323.875C309.776 324.568 310.163 325.111 310.668 325.503C311.174 325.889 311.793 326.082 312.526 326.082C313.288 326.082 313.924 325.881 314.435 325.477C314.947 325.068 315.333 324.514 315.594 323.815C315.862 323.116 315.995 322.33 315.995 321.455C315.995 320.591 315.864 319.815 315.603 319.128C315.347 318.44 314.961 317.898 314.444 317.5C313.933 317.102 313.293 316.903 312.526 316.903C311.788 316.903 311.163 317.094 310.651 317.474C310.146 317.855 309.762 318.386 309.501 319.068C309.239 319.75 309.109 320.545 309.109 321.455ZM326.325 328.256C325.268 328.256 324.325 327.986 323.495 327.446C322.671 326.901 322.023 326.125 321.552 325.119C321.086 324.108 320.853 322.895 320.853 321.48C320.853 320.065 321.089 318.855 321.56 317.849C322.038 316.844 322.691 316.074 323.521 315.54C324.35 315.006 325.29 314.739 326.342 314.739C327.154 314.739 327.808 314.875 328.302 315.148C328.802 315.415 329.188 315.727 329.461 316.085C329.739 316.443 329.955 316.759 330.109 317.031H330.262V310.545H332.81V328H330.322V325.963H330.109C329.955 326.241 329.734 326.56 329.444 326.918C329.16 327.276 328.768 327.588 328.268 327.855C327.768 328.122 327.12 328.256 326.325 328.256ZM326.887 326.082C327.62 326.082 328.239 325.889 328.745 325.503C329.256 325.111 329.643 324.568 329.904 323.875C330.171 323.182 330.305 322.375 330.305 321.455C330.305 320.545 330.174 319.75 329.913 319.068C329.651 318.386 329.268 317.855 328.762 317.474C328.256 317.094 327.631 316.903 326.887 316.903C326.12 316.903 325.481 317.102 324.969 317.5C324.458 317.898 324.072 318.44 323.81 319.128C323.555 319.815 323.427 320.591 323.427 321.455C323.427 322.33 323.558 323.116 323.819 323.815C324.08 324.514 324.467 325.068 324.978 325.477C325.495 325.881 326.131 326.082 326.887 326.082ZM340.257 328.29C339.428 328.29 338.678 328.136 338.007 327.83C337.337 327.517 336.805 327.065 336.413 326.474C336.027 325.884 335.834 325.159 335.834 324.301C335.834 323.562 335.976 322.955 336.26 322.477C336.544 322 336.928 321.622 337.411 321.344C337.893 321.065 338.433 320.855 339.03 320.713C339.626 320.571 340.234 320.463 340.854 320.389C341.638 320.298 342.274 320.224 342.763 320.168C343.251 320.105 343.607 320.006 343.828 319.869C344.05 319.733 344.161 319.511 344.161 319.205V319.145C344.161 318.401 343.95 317.824 343.53 317.415C343.115 317.006 342.496 316.801 341.672 316.801C340.814 316.801 340.138 316.991 339.643 317.372C339.155 317.747 338.817 318.165 338.629 318.625L336.234 318.08C336.518 317.284 336.933 316.642 337.479 316.153C338.03 315.659 338.663 315.301 339.379 315.08C340.095 314.852 340.848 314.739 341.638 314.739C342.161 314.739 342.714 314.801 343.3 314.926C343.891 315.045 344.442 315.267 344.953 315.591C345.47 315.915 345.893 316.378 346.223 316.98C346.553 317.577 346.717 318.352 346.717 319.307V328H344.229V326.21H344.126C343.962 326.54 343.714 326.864 343.385 327.182C343.055 327.5 342.632 327.764 342.115 327.974C341.598 328.185 340.979 328.29 340.257 328.29ZM340.811 326.244C341.516 326.244 342.118 326.105 342.618 325.827C343.124 325.548 343.507 325.185 343.768 324.736C344.036 324.281 344.169 323.795 344.169 323.278V321.591C344.078 321.682 343.902 321.767 343.641 321.847C343.385 321.92 343.092 321.986 342.763 322.043C342.433 322.094 342.112 322.142 341.8 322.188C341.487 322.227 341.226 322.261 341.016 322.29C340.521 322.352 340.07 322.457 339.661 322.605C339.257 322.753 338.933 322.966 338.689 323.244C338.45 323.517 338.331 323.881 338.331 324.335C338.331 324.966 338.564 325.443 339.03 325.767C339.496 326.085 340.089 326.244 340.811 326.244ZM356.222 314.909V316.955H349.072V314.909H356.222ZM350.989 311.773H353.538V324.156C353.538 324.651 353.612 325.023 353.759 325.273C353.907 325.517 354.097 325.685 354.33 325.776C354.569 325.861 354.827 325.903 355.106 325.903C355.31 325.903 355.489 325.889 355.643 325.861C355.796 325.832 355.915 325.81 356.001 325.793L356.461 327.898C356.313 327.955 356.103 328.011 355.83 328.068C355.558 328.131 355.217 328.165 354.808 328.17C354.137 328.182 353.512 328.062 352.933 327.812C352.353 327.562 351.884 327.176 351.526 326.653C351.168 326.131 350.989 325.474 350.989 324.685V311.773ZM364.543 328.264C363.253 328.264 362.142 327.989 361.21 327.438C360.284 326.881 359.568 326.099 359.062 325.094C358.562 324.082 358.312 322.898 358.312 321.54C358.312 320.199 358.562 319.017 359.062 317.994C359.568 316.972 360.273 316.173 361.176 315.599C362.085 315.026 363.148 314.739 364.364 314.739C365.102 314.739 365.818 314.861 366.511 315.105C367.205 315.349 367.827 315.733 368.378 316.256C368.929 316.778 369.364 317.457 369.682 318.293C370 319.122 370.159 320.131 370.159 321.318V322.222H359.753V320.312H367.662C367.662 319.642 367.526 319.048 367.253 318.531C366.98 318.009 366.597 317.597 366.102 317.295C365.614 316.994 365.04 316.844 364.381 316.844C363.665 316.844 363.04 317.02 362.506 317.372C361.977 317.719 361.568 318.173 361.278 318.736C360.994 319.293 360.852 319.898 360.852 320.551V322.043C360.852 322.918 361.006 323.662 361.312 324.276C361.625 324.889 362.06 325.358 362.616 325.682C363.173 326 363.824 326.159 364.568 326.159C365.051 326.159 365.491 326.091 365.889 325.955C366.287 325.812 366.631 325.602 366.92 325.324C367.21 325.045 367.432 324.702 367.585 324.293L369.997 324.727C369.804 325.437 369.457 326.06 368.957 326.594C368.463 327.122 367.841 327.534 367.091 327.83C366.347 328.119 365.497 328.264 364.543 328.264ZM377.887 328.256C376.83 328.256 375.887 327.986 375.058 327.446C374.234 326.901 373.586 326.125 373.114 325.119C372.648 324.108 372.415 322.895 372.415 321.48C372.415 320.065 372.651 318.855 373.123 317.849C373.6 316.844 374.254 316.074 375.083 315.54C375.913 315.006 376.853 314.739 377.904 314.739C378.717 314.739 379.37 314.875 379.864 315.148C380.364 315.415 380.751 315.727 381.023 316.085C381.302 316.443 381.518 316.759 381.671 317.031H381.825V310.545H384.373V328H381.884V325.963H381.671C381.518 326.241 381.296 326.56 381.006 326.918C380.722 327.276 380.33 327.588 379.83 327.855C379.33 328.122 378.683 328.256 377.887 328.256ZM378.45 326.082C379.183 326.082 379.802 325.889 380.308 325.503C380.819 325.111 381.205 324.568 381.467 323.875C381.734 323.182 381.867 322.375 381.867 321.455C381.867 320.545 381.737 319.75 381.475 319.068C381.214 318.386 380.83 317.855 380.325 317.474C379.819 317.094 379.194 316.903 378.45 316.903C377.683 316.903 377.043 317.102 376.532 317.5C376.021 317.898 375.634 318.44 375.373 319.128C375.117 319.815 374.989 320.591 374.989 321.455C374.989 322.33 375.12 323.116 375.381 323.815C375.643 324.514 376.029 325.068 376.54 325.477C377.058 325.881 377.694 326.082 378.45 326.082ZM391.223 310.545L391.001 322.98H388.641L388.419 310.545H391.223ZM389.825 328.162C389.354 328.162 388.95 327.997 388.615 327.668C388.28 327.332 388.115 326.929 388.121 326.457C388.115 325.991 388.28 325.594 388.615 325.264C388.95 324.929 389.354 324.761 389.825 324.761C390.286 324.761 390.683 324.929 391.018 325.264C391.354 325.594 391.524 325.991 391.53 326.457C391.524 326.77 391.442 327.057 391.283 327.318C391.129 327.574 390.925 327.778 390.669 327.932C390.413 328.085 390.132 328.162 389.825 328.162Z" fill="#2B2B2B"/>
</svg>
