<svg width="140" height="140" viewBox="0 0 140 140" fill="none" xmlns="http://www.w3.org/2000/svg">
<path d="M70 122.125C56.1756 122.125 42.9174 116.633 33.1421 106.858C23.3667 97.0826 17.875 83.8244 17.875 70C17.875 56.1756 23.3667 42.9174 33.1421 33.1421C42.9174 23.3667 56.1756 17.875 70 17.875C98.7846 17.875 122.125 38.6207 122.125 64.2083C122.125 70.3475 119.38 76.2434 114.492 80.5872C109.603 84.9309 102.972 87.375 96.0625 87.375H81.5833C78.9994 87.3334 76.4758 88.157 74.4139 89.7148C72.3521 91.2727 70.8703 93.4753 70.2045 95.9722C69.5386 98.4692 69.7269 101.117 70.7393 103.495C71.7517 105.872 73.5301 107.843 75.7917 109.094C76.9481 110.161 77.7411 111.563 78.0593 113.104C78.3776 114.645 78.2051 116.247 77.566 117.685C76.927 119.123 75.8535 120.324 74.4964 121.121C73.1394 121.917 71.5669 122.268 70 122.125Z" stroke="#A32E8C" stroke-width="7" stroke-linecap="round" stroke-linejoin="round"/>
<path d="M43.9375 61.3125C43.9375 62.8485 44.5477 64.3217 45.6338 65.4078C46.72 66.494 48.1931 67.1042 49.7292 67.1042C51.2652 67.1042 52.7383 66.494 53.8245 65.4078C54.9106 64.3217 55.5208 62.8485 55.5208 61.3125C55.5208 59.7765 54.9106 58.3033 53.8245 57.2172C52.7383 56.131 51.2652 55.5208 49.7292 55.5208C48.1931 55.5208 46.72 56.131 45.6338 57.2172C44.5477 58.3033 43.9375 59.7765 43.9375 61.3125Z" stroke="#A32E8C" stroke-width="7" stroke-linecap="round" stroke-linejoin="round"/>
<path d="M67.1042 43.9375C67.1042 45.4735 67.7144 46.9467 68.8005 48.0328C69.8867 49.119 71.3598 49.7292 72.8958 49.7292C74.4319 49.7292 75.905 49.119 76.9912 48.0328C78.0773 46.9467 78.6875 45.4735 78.6875 43.9375C78.6875 42.4015 78.0773 40.9283 76.9912 39.8422C75.905 38.756 74.4319 38.1458 72.8958 38.1458C71.3598 38.1458 69.8867 38.756 68.8005 39.8422C67.7144 40.9283 67.1042 42.4015 67.1042 43.9375Z" stroke="#A32E8C" stroke-width="7" stroke-linecap="round" stroke-linejoin="round"/>
<path d="M90.2708 61.3125C90.2708 62.8485 90.881 64.3217 91.9672 65.4078C93.0533 66.494 94.5265 67.1042 96.0625 67.1042C97.5985 67.1042 99.0717 66.494 100.158 65.4078C101.244 64.3217 101.854 62.8485 101.854 61.3125C101.854 59.7765 101.244 58.3033 100.158 57.2172C99.0717 56.131 97.5985 55.5208 96.0625 55.5208C94.5265 55.5208 93.0533 56.131 91.9672 57.2172C90.881 58.3033 90.2708 59.7765 90.2708 61.3125Z" stroke="#A32E8C" stroke-width="7" stroke-linecap="round" stroke-linejoin="round"/>
</svg>
