<svg width="140" height="140" viewBox="0 0 140 140" fill="none" xmlns="http://www.w3.org/2000/svg">
<path d="M85.6375 78.6878C79.2666 67.1045 77.2917 64.2087 70 64.2087C62.7083 64.2087 59.9456 68.5814 53.5748 80.1184C48.1191 89.9816 37.0917 90.804 34.3407 99.1787C33.7789 100.714 33.5009 103.1 33.5125 104.75C33.5125 111.561 38.0705 116.334 43.9375 116.334C51.2292 116.334 61.3125 110.542 70 110.542C78.6875 110.542 88.7708 116.334 96.0625 116.334C101.929 116.334 106.487 111.567 106.487 104.75C106.487 103.1 106.204 100.714 105.642 99.1787C102.891 90.775 91.0932 88.551 85.6375 78.6878Z" stroke="#A32E8C" stroke-width="7" stroke-linecap="round" stroke-linejoin="round"/>
<path d="M117.422 47.3086C116.678 46.9941 115.878 46.8326 115.071 46.8337H114.984C110.727 46.9032 105.949 51.1774 103.441 57.6409C100.435 65.3728 101.819 73.2784 106.557 75.3171C107.304 75.6356 108.103 75.792 108.908 75.792C113.188 75.792 118.03 71.4946 120.555 64.9847C123.544 57.2529 122.131 49.3472 117.422 47.3086Z" stroke="#A32E8C" stroke-width="7" stroke-linecap="round" stroke-linejoin="round"/>
<path d="M55.3702 52.6253C55.6888 52.6253 56.0015 52.6253 56.3143 52.5616C61.7816 51.8203 65.1929 44.766 63.9593 36.7967C62.7836 29.2849 57.8954 23.667 52.7698 23.667C52.4512 23.667 52.1385 23.667 51.8257 23.7307C46.3584 24.472 42.9471 31.5263 44.1807 39.4956C45.3622 46.9842 50.2504 52.6253 55.376 52.6253H55.3702Z" stroke="#A32E8C" stroke-width="7" stroke-linecap="round" stroke-linejoin="round"/>
<path d="M95.8075 39.4956C97.0469 31.5263 93.6356 24.472 88.1625 23.7307C87.8516 23.6877 87.5381 23.6664 87.2243 23.667C82.0986 23.667 77.2163 29.2849 76.0463 36.7967C74.8069 44.7661 78.2182 51.8203 83.6913 52.5616C84.0041 52.6022 84.3168 52.6253 84.6296 52.6253C89.7552 52.6253 94.6492 46.9843 95.8075 39.4956Z" stroke="#A32E8C" stroke-width="7" stroke-linecap="round" stroke-linejoin="round"/>
<path d="M33.4545 75.3171C38.1805 73.2784 39.559 65.3612 36.5589 57.6409C34.0337 51.1311 29.1977 46.8337 24.9234 46.8337C24.1126 46.8337 23.3191 46.99 22.5662 47.3086C17.8402 49.3472 16.4618 57.2645 19.4619 64.9847C21.987 71.4946 26.8231 75.792 31.0973 75.792C31.9082 75.792 32.7016 75.6356 33.4545 75.3171Z" stroke="#A32E8C" stroke-width="7" stroke-linecap="round" stroke-linejoin="round"/>
</svg>
