<svg width="140" height="140" viewBox="0 0 140 140" fill="none" xmlns="http://www.w3.org/2000/svg">
<path d="M87.375 23.667L122.125 35.2503V64.2087H104.75V110.542C104.75 112.078 104.14 113.551 103.054 114.637C101.968 115.723 100.494 116.334 98.9583 116.334H41.0417C39.5056 116.334 38.0325 115.723 36.9463 114.637C35.8602 113.551 35.25 112.078 35.25 110.542V64.2087H17.875V35.2503L52.625 23.667C52.625 28.2751 54.4556 32.6945 57.714 35.953C60.9725 39.2114 65.3919 41.042 70 41.042C74.6081 41.042 79.0275 39.2114 82.286 35.953C85.5444 32.6945 87.375 28.2751 87.375 23.667Z" stroke="#A32E8C" stroke-width="7" stroke-linecap="round" stroke-linejoin="round"/>
</svg>
