<svg width="57" height="56" viewBox="0 0 57 56" fill="none" xmlns="http://www.w3.org/2000/svg">
<path d="M49.4697 37.3333C49.4797 37.0842 49.449 36.8352 49.3787 36.596L44.712 22.596C44.5579 22.1312 44.2612 21.7268 43.8641 21.4402C43.467 21.1537 42.9897 20.9997 42.5 21H33.1667V25.6667H40.8177L44.7073 37.3333H12.2927L16.1823 25.6667H23.8333V21H14.5C14.0103 20.9997 13.533 21.1537 13.1359 21.4402C12.7388 21.7268 12.4421 22.1312 12.288 22.596L7.62133 36.596C7.55101 36.8352 7.52027 37.0842 7.53033 37.3333C7.5 37.3333 7.5 49 7.5 49C7.5 49.6188 7.74583 50.2123 8.18342 50.6499C8.621 51.0875 9.21449 51.3333 9.83333 51.3333H47.1667C47.7855 51.3333 48.379 51.0875 48.8166 50.6499C49.2542 50.2123 49.5 49.6188 49.5 49C49.5 49 49.5 37.3333 49.4697 37.3333ZM37.8333 18.4427C38.4377 18.4427 39.042 18.221 39.483 17.7823C39.9204 17.3448 40.1662 16.7514 40.1662 16.1327C40.1662 15.514 39.9204 14.9206 39.483 14.483L28.5 3.5L17.517 14.483C17.0796 14.9206 16.8338 15.514 16.8338 16.1327C16.8338 16.7514 17.0796 17.3448 17.517 17.7823C17.958 18.2233 18.5623 18.4427 19.1667 18.4427C19.771 18.4427 20.3753 18.2233 20.8163 17.7823L26.1667 12.432V28C26.1667 28.6188 26.4125 29.2123 26.8501 29.6499C27.2877 30.0875 27.8812 30.3333 28.5 30.3333C29.1188 30.3333 29.7123 30.0875 30.1499 29.6499C30.5875 29.2123 30.8333 28.6188 30.8333 28V12.432L36.1837 17.7823C36.6245 18.2121 37.2177 18.4495 37.8333 18.4427Z" fill="#A32E8C"/>
</svg>
