<svg width="80" height="61" viewBox="0 0 80 61" fill="none" xmlns="http://www.w3.org/2000/svg">
<path d="M54.9783 26.6667C54.9855 26.4887 54.9636 26.3108 54.9133 26.14L51.58 16.14C51.4699 15.808 51.258 15.5191 50.9744 15.3145C50.6907 15.1098 50.3498 14.9998 50 15H43.3333V18.3333H48.7983L51.5767 26.6667H28.4233L31.2017 18.3333H36.6667V15H30C29.6502 14.9998 29.3093 15.1098 29.0256 15.3145C28.742 15.5191 28.5301 15.808 28.42 16.14L25.0867 26.14C25.0364 26.3108 25.0145 26.4887 25.0217 26.6667C25 26.6667 25 35 25 35C25 35.442 25.1756 35.8659 25.4882 36.1785C25.8007 36.4911 26.2246 36.6667 26.6667 36.6667H53.3333C53.7754 36.6667 54.1993 36.4911 54.5118 36.1785C54.8244 35.8659 55 35.442 55 35C55 35 55 26.6667 54.9783 26.6667ZM46.6667 13.1733C47.0983 13.1733 47.53 13.015 47.845 12.7017C48.1575 12.3891 48.333 11.9653 48.333 11.5233C48.333 11.0814 48.1575 10.6575 47.845 10.345L40 2.5L32.155 10.345C31.8425 10.6575 31.667 11.0814 31.667 11.5233C31.667 11.9653 31.8425 12.3891 32.155 12.7017C32.47 13.0167 32.9017 13.1733 33.3333 13.1733C33.765 13.1733 34.1967 13.0167 34.5117 12.7017L38.3333 8.88V20C38.3333 20.442 38.5089 20.8659 38.8215 21.1785C39.134 21.4911 39.558 21.6667 40 21.6667C40.442 21.6667 40.8659 21.4911 41.1785 21.1785C41.4911 20.8659 41.6667 20.442 41.6667 20V8.88L45.4883 12.7017C45.8032 13.0086 46.227 13.1782 46.6667 13.1733Z" fill="#A32E8C"/>
<path d="M0.881836 50.1602L2.25586 48.2734L0.191406 47.6582L0.512695 46.6328L2.57715 47.3916L2.51562 45.04H3.55469L3.48633 47.4326L5.52344 46.6738L5.83789 47.7197L3.73926 48.3418L5.08594 50.1943L4.23828 50.8301L2.97363 48.8613L1.73633 50.7822L0.881836 50.1602ZM12.8789 45.0469H14.1914V51.7803C14.1914 52.5277 14.0251 53.1497 13.6924 53.6465C13.3597 54.1432 12.9176 54.5169 12.3662 54.7676C11.8193 55.0137 11.2246 55.1367 10.582 55.1367C9.90755 55.1367 9.29688 55.0137 8.75 54.7676C8.20768 54.5169 7.77702 54.1432 7.45801 53.6465C7.14355 53.1497 6.98633 52.5277 6.98633 51.7803V45.0469H8.29199V51.7803C8.29199 52.2998 8.3877 52.7282 8.5791 53.0654C8.77051 53.4027 9.03711 53.6533 9.37891 53.8174C9.72526 53.9814 10.1263 54.0635 10.582 54.0635C11.0423 54.0635 11.4434 53.9814 11.7852 53.8174C12.1315 53.6533 12.4004 53.4027 12.5918 53.0654C12.7832 52.7282 12.8789 52.2998 12.8789 51.7803V45.0469ZM17.3359 49.0254V57.8438H16.0645V47.6035H17.2266L17.3359 49.0254ZM22.3193 51.2402V51.3838C22.3193 51.9215 22.2555 52.4206 22.1279 52.8809C22.0003 53.3366 21.8135 53.7331 21.5674 54.0703C21.3258 54.4076 21.0273 54.6696 20.6719 54.8564C20.3164 55.0433 19.9085 55.1367 19.4482 55.1367C18.9788 55.1367 18.5641 55.0592 18.2041 54.9043C17.8441 54.7493 17.5387 54.5238 17.2881 54.2275C17.0374 53.9313 16.8369 53.5758 16.6865 53.1611C16.5407 52.7464 16.4404 52.2793 16.3857 51.7598V50.9941C16.4404 50.4473 16.543 49.9574 16.6934 49.5244C16.8438 49.0915 17.042 48.7223 17.2881 48.417C17.5387 48.1071 17.8418 47.8724 18.1973 47.7129C18.5527 47.5488 18.9629 47.4668 19.4277 47.4668C19.8926 47.4668 20.305 47.5579 20.665 47.7402C21.0251 47.918 21.3281 48.1732 21.5742 48.5059C21.8203 48.8385 22.0049 49.2373 22.1279 49.7021C22.2555 50.1624 22.3193 50.6751 22.3193 51.2402ZM21.0479 51.3838V51.2402C21.0479 50.8711 21.0091 50.5247 20.9316 50.2012C20.8542 49.873 20.7334 49.5859 20.5693 49.3398C20.4098 49.0892 20.2048 48.8932 19.9541 48.752C19.7035 48.6061 19.4049 48.5332 19.0586 48.5332C18.7396 48.5332 18.4616 48.5879 18.2246 48.6973C17.9922 48.8066 17.7939 48.9548 17.6299 49.1416C17.4658 49.3239 17.3314 49.5335 17.2266 49.7705C17.1263 50.0029 17.0511 50.2445 17.001 50.4951V52.2656C17.0921 52.5846 17.2197 52.8854 17.3838 53.168C17.5479 53.446 17.7666 53.6715 18.04 53.8447C18.3135 54.0133 18.6576 54.0977 19.0723 54.0977C19.4141 54.0977 19.708 54.027 19.9541 53.8857C20.2048 53.7399 20.4098 53.5417 20.5693 53.291C20.7334 53.0404 20.8542 52.7533 20.9316 52.4297C21.0091 52.1016 21.0479 51.7529 21.0479 51.3838ZM25.3066 44.5V55H24.0352V44.5H25.3066ZM27.002 51.3838V51.2266C27.002 50.6934 27.0794 50.1989 27.2344 49.7432C27.3893 49.2829 27.6126 48.8841 27.9043 48.5469C28.196 48.2051 28.5492 47.9408 28.9639 47.7539C29.3786 47.5625 29.8434 47.4668 30.3584 47.4668C30.8779 47.4668 31.3451 47.5625 31.7598 47.7539C32.179 47.9408 32.5345 48.2051 32.8262 48.5469C33.1224 48.8841 33.348 49.2829 33.5029 49.7432C33.6579 50.1989 33.7354 50.6934 33.7354 51.2266V51.3838C33.7354 51.917 33.6579 52.4115 33.5029 52.8672C33.348 53.3229 33.1224 53.7217 32.8262 54.0635C32.5345 54.4007 32.1813 54.665 31.7666 54.8564C31.3564 55.0433 30.8916 55.1367 30.3721 55.1367C29.8525 55.1367 29.3854 55.0433 28.9707 54.8564C28.556 54.665 28.2005 54.4007 27.9043 54.0635C27.6126 53.7217 27.3893 53.3229 27.2344 52.8672C27.0794 52.4115 27.002 51.917 27.002 51.3838ZM28.2666 51.2266V51.3838C28.2666 51.7529 28.3099 52.1016 28.3965 52.4297C28.4831 52.7533 28.613 53.0404 28.7861 53.291C28.9639 53.5417 29.1849 53.7399 29.4492 53.8857C29.7135 54.027 30.0212 54.0977 30.3721 54.0977C30.7184 54.0977 31.0215 54.027 31.2812 53.8857C31.5456 53.7399 31.7643 53.5417 31.9375 53.291C32.1107 53.0404 32.2406 52.7533 32.3271 52.4297C32.4183 52.1016 32.4639 51.7529 32.4639 51.3838V51.2266C32.4639 50.862 32.4183 50.5179 32.3271 50.1943C32.2406 49.8662 32.1084 49.5768 31.9307 49.3262C31.7575 49.071 31.5387 48.8704 31.2744 48.7246C31.0146 48.5788 30.7093 48.5059 30.3584 48.5059C30.012 48.5059 29.7067 48.5788 29.4424 48.7246C29.1826 48.8704 28.9639 49.071 28.7861 49.3262C28.613 49.5768 28.4831 49.8662 28.3965 50.1943C28.3099 50.5179 28.2666 50.862 28.2666 51.2266ZM39.6826 53.7354V49.9277C39.6826 49.6361 39.6234 49.3831 39.5049 49.1689C39.391 48.9502 39.2178 48.7816 38.9854 48.6631C38.7529 48.5446 38.4658 48.4854 38.124 48.4854C37.805 48.4854 37.5247 48.54 37.2832 48.6494C37.0462 48.7588 36.8594 48.9023 36.7227 49.0801C36.5905 49.2578 36.5244 49.4492 36.5244 49.6543H35.2598C35.2598 49.39 35.3281 49.1279 35.4648 48.8682C35.6016 48.6084 35.7975 48.3737 36.0527 48.1641C36.3125 47.9499 36.6224 47.7812 36.9824 47.6582C37.347 47.5306 37.7526 47.4668 38.1992 47.4668C38.737 47.4668 39.2109 47.5579 39.6211 47.7402C40.0358 47.9225 40.3594 48.1982 40.5918 48.5674C40.8288 48.932 40.9473 49.39 40.9473 49.9414V53.3867C40.9473 53.6328 40.9678 53.8949 41.0088 54.1729C41.0544 54.4508 41.1204 54.6901 41.207 54.8906V55H39.8877C39.8239 54.8542 39.7738 54.6605 39.7373 54.4189C39.7008 54.1729 39.6826 53.945 39.6826 53.7354ZM39.9014 50.5156L39.915 51.4043H38.6367C38.2767 51.4043 37.9554 51.4339 37.6729 51.4932C37.3903 51.5479 37.1533 51.6322 36.9619 51.7461C36.7705 51.86 36.6247 52.0036 36.5244 52.1768C36.4242 52.3454 36.374 52.5436 36.374 52.7715C36.374 53.0039 36.4264 53.2158 36.5312 53.4072C36.6361 53.5986 36.7933 53.7513 37.0029 53.8652C37.2171 53.9746 37.4792 54.0293 37.7891 54.0293C38.1764 54.0293 38.5182 53.9473 38.8145 53.7832C39.1107 53.6191 39.3454 53.4186 39.5186 53.1816C39.6963 52.9447 39.792 52.7145 39.8057 52.4912L40.3457 53.0996C40.3138 53.291 40.2272 53.5029 40.0859 53.7354C39.9447 53.9678 39.7555 54.1911 39.5186 54.4053C39.2861 54.6149 39.0081 54.7904 38.6846 54.9316C38.3656 55.0684 38.0055 55.1367 37.6045 55.1367C37.1032 55.1367 36.6634 55.0387 36.2852 54.8428C35.9115 54.6468 35.6198 54.3848 35.4102 54.0566C35.2051 53.724 35.1025 53.3525 35.1025 52.9424C35.1025 52.5459 35.18 52.1973 35.335 51.8965C35.4899 51.5911 35.7132 51.3382 36.0049 51.1377C36.2965 50.9326 36.6475 50.7777 37.0576 50.6729C37.4678 50.568 37.9258 50.5156 38.4316 50.5156H39.9014ZM47.5986 53.5645V44.5H48.8701V55H47.708L47.5986 53.5645ZM42.6221 51.3838V51.2402C42.6221 50.6751 42.6904 50.1624 42.8271 49.7021C42.9684 49.2373 43.1667 48.8385 43.4219 48.5059C43.6816 48.1732 43.9893 47.918 44.3447 47.7402C44.7048 47.5579 45.1058 47.4668 45.5479 47.4668C46.0127 47.4668 46.4183 47.5488 46.7646 47.7129C47.1156 47.8724 47.4118 48.1071 47.6533 48.417C47.8994 48.7223 48.0931 49.0915 48.2344 49.5244C48.3757 49.9574 48.4736 50.4473 48.5283 50.9941V51.623C48.4782 52.1654 48.3802 52.653 48.2344 53.0859C48.0931 53.5189 47.8994 53.888 47.6533 54.1934C47.4118 54.4987 47.1156 54.7334 46.7646 54.8975C46.4137 55.057 46.0036 55.1367 45.5342 55.1367C45.1012 55.1367 44.7048 55.0433 44.3447 54.8564C43.9893 54.6696 43.6816 54.4076 43.4219 54.0703C43.1667 53.7331 42.9684 53.3366 42.8271 52.8809C42.6904 52.4206 42.6221 51.9215 42.6221 51.3838ZM43.8936 51.2402V51.3838C43.8936 51.7529 43.93 52.0993 44.0029 52.4229C44.0804 52.7464 44.1989 53.0312 44.3584 53.2773C44.5179 53.5234 44.7207 53.7171 44.9668 53.8584C45.2129 53.9951 45.5068 54.0635 45.8486 54.0635C46.2679 54.0635 46.612 53.9746 46.8809 53.7969C47.1543 53.6191 47.373 53.3844 47.5371 53.0928C47.7012 52.8011 47.8288 52.4844 47.9199 52.1426V50.4951C47.8652 50.2445 47.7855 50.0029 47.6807 49.7705C47.5804 49.5335 47.4482 49.3239 47.2842 49.1416C47.1247 48.9548 46.9264 48.8066 46.6895 48.6973C46.457 48.5879 46.1813 48.5332 45.8623 48.5332C45.516 48.5332 45.2174 48.6061 44.9668 48.752C44.7207 48.8932 44.5179 49.0892 44.3584 49.3398C44.1989 49.5859 44.0804 49.873 44.0029 50.2012C43.93 50.5247 43.8936 50.8711 43.8936 51.2402ZM55.6855 47.6035V55H54.4141V47.6035H55.6855ZM54.3184 45.6416C54.3184 45.4365 54.3799 45.2633 54.5029 45.1221C54.6305 44.9808 54.8174 44.9102 55.0635 44.9102C55.305 44.9102 55.4896 44.9808 55.6172 45.1221C55.7493 45.2633 55.8154 45.4365 55.8154 45.6416C55.8154 45.8376 55.7493 46.0062 55.6172 46.1475C55.4896 46.2842 55.305 46.3525 55.0635 46.3525C54.8174 46.3525 54.6305 46.2842 54.5029 46.1475C54.3799 46.0062 54.3184 45.8376 54.3184 45.6416ZM60.6758 54.0977C60.9766 54.0977 61.2546 54.0361 61.5098 53.9131C61.765 53.79 61.9746 53.6214 62.1387 53.4072C62.3027 53.1885 62.3962 52.9401 62.4189 52.6621H63.6221C63.5993 53.0996 63.4512 53.5075 63.1777 53.8857C62.9089 54.2594 62.5557 54.5625 62.1182 54.7949C61.6807 55.0228 61.1999 55.1367 60.6758 55.1367C60.1198 55.1367 59.6344 55.0387 59.2197 54.8428C58.8096 54.6468 58.4678 54.3779 58.1943 54.0361C57.9255 53.6943 57.7227 53.3024 57.5859 52.8604C57.4538 52.4137 57.3877 51.9421 57.3877 51.4453V51.1582C57.3877 50.6615 57.4538 50.1921 57.5859 49.75C57.7227 49.3034 57.9255 48.9092 58.1943 48.5674C58.4678 48.2256 58.8096 47.9567 59.2197 47.7607C59.6344 47.5648 60.1198 47.4668 60.6758 47.4668C61.2546 47.4668 61.7604 47.5853 62.1934 47.8223C62.6263 48.0547 62.9658 48.3737 63.2119 48.7793C63.4626 49.1803 63.5993 49.6361 63.6221 50.1465H62.4189C62.3962 49.8411 62.3096 49.5654 62.1592 49.3193C62.0133 49.0732 61.8128 48.8773 61.5576 48.7314C61.307 48.5811 61.013 48.5059 60.6758 48.5059C60.2884 48.5059 59.9626 48.5833 59.6982 48.7383C59.4385 48.8887 59.2311 49.0938 59.0762 49.3535C58.9258 49.6087 58.8164 49.8936 58.748 50.208C58.6842 50.5179 58.6523 50.8346 58.6523 51.1582V51.4453C58.6523 51.7689 58.6842 52.0879 58.748 52.4023C58.8118 52.7168 58.9189 53.0016 59.0693 53.2568C59.2243 53.512 59.4316 53.7171 59.6914 53.8721C59.9557 54.0225 60.2839 54.0977 60.6758 54.0977ZM64.709 51.3838V51.2266C64.709 50.6934 64.7865 50.1989 64.9414 49.7432C65.0964 49.2829 65.3197 48.8841 65.6113 48.5469C65.903 48.2051 66.2562 47.9408 66.6709 47.7539C67.0856 47.5625 67.5505 47.4668 68.0654 47.4668C68.585 47.4668 69.0521 47.5625 69.4668 47.7539C69.8861 47.9408 70.2415 48.2051 70.5332 48.5469C70.8294 48.8841 71.055 49.2829 71.21 49.7432C71.3649 50.1989 71.4424 50.6934 71.4424 51.2266V51.3838C71.4424 51.917 71.3649 52.4115 71.21 52.8672C71.055 53.3229 70.8294 53.7217 70.5332 54.0635C70.2415 54.4007 69.8883 54.665 69.4736 54.8564C69.0635 55.0433 68.5986 55.1367 68.0791 55.1367C67.5596 55.1367 67.0924 55.0433 66.6777 54.8564C66.263 54.665 65.9076 54.4007 65.6113 54.0635C65.3197 53.7217 65.0964 53.3229 64.9414 52.8672C64.7865 52.4115 64.709 51.917 64.709 51.3838ZM65.9736 51.2266V51.3838C65.9736 51.7529 66.0169 52.1016 66.1035 52.4297C66.1901 52.7533 66.32 53.0404 66.4932 53.291C66.6709 53.5417 66.8919 53.7399 67.1562 53.8857C67.4206 54.027 67.7282 54.0977 68.0791 54.0977C68.4255 54.0977 68.7285 54.027 68.9883 53.8857C69.2526 53.7399 69.4714 53.5417 69.6445 53.291C69.8177 53.0404 69.9476 52.7533 70.0342 52.4297C70.1253 52.1016 70.1709 51.7529 70.1709 51.3838V51.2266C70.1709 50.862 70.1253 50.5179 70.0342 50.1943C69.9476 49.8662 69.8154 49.5768 69.6377 49.3262C69.4645 49.071 69.2458 48.8704 68.9814 48.7246C68.7217 48.5788 68.4163 48.5059 68.0654 48.5059C67.7191 48.5059 67.4137 48.5788 67.1494 48.7246C66.8896 48.8704 66.6709 49.071 66.4932 49.3262C66.32 49.5768 66.1901 49.8662 66.1035 50.1943C66.0169 50.5179 65.9736 50.862 65.9736 51.2266ZM74.293 49.1826V55H73.0283V47.6035H74.2246L74.293 49.1826ZM73.9922 51.0215L73.4658 51.001C73.4704 50.4951 73.5456 50.028 73.6914 49.5996C73.8372 49.1667 74.0423 48.7907 74.3066 48.4717C74.571 48.1527 74.8854 47.9066 75.25 47.7334C75.6191 47.5557 76.027 47.4668 76.4736 47.4668C76.8382 47.4668 77.1663 47.5169 77.458 47.6172C77.7497 47.7129 77.998 47.8678 78.2031 48.082C78.4128 48.2962 78.5723 48.5742 78.6816 48.916C78.791 49.2533 78.8457 49.6657 78.8457 50.1533V55H77.5742V50.1396C77.5742 49.7523 77.5173 49.4424 77.4033 49.21C77.2894 48.973 77.123 48.8021 76.9043 48.6973C76.6855 48.5879 76.4167 48.5332 76.0977 48.5332C75.7832 48.5332 75.4961 48.5993 75.2363 48.7314C74.9811 48.8636 74.7601 49.0459 74.5732 49.2783C74.391 49.5107 74.2474 49.7773 74.1426 50.0781C74.0423 50.3743 73.9922 50.6888 73.9922 51.0215Z" fill="#A32E8C"/>
</svg>
