<svg width="163" height="164" viewBox="0 0 163 164" fill="none" xmlns="http://www.w3.org/2000/svg">
<rect x="0.25" y="0.75" width="162.5" height="162.5" rx="2.75" fill="white"/>
<path d="M99.9783 77.6667C99.9855 77.4887 99.9636 77.3108 99.9133 77.14L96.58 67.14C96.4699 66.808 96.258 66.5191 95.9744 66.3145C95.6907 66.1098 95.3498 65.9998 95 66H88.3333V69.3333H93.7983L96.5767 77.6667H73.4233L76.2017 69.3333H81.6667V66H75C74.6502 65.9998 74.3093 66.1098 74.0256 66.3145C73.742 66.5191 73.5301 66.808 73.42 67.14L70.0867 77.14C70.0364 77.3108 70.0145 77.4887 70.0217 77.6667C70 77.6667 70 86 70 86C70 86.442 70.1756 86.8659 70.4882 87.1785C70.8007 87.4911 71.2246 87.6667 71.6667 87.6667H98.3333C98.7754 87.6667 99.1993 87.4911 99.5118 87.1785C99.8244 86.8659 100 86.442 100 86C100 86 100 77.6667 99.9783 77.6667ZM91.6667 64.1733C92.0983 64.1733 92.53 64.015 92.845 63.7017C93.1575 63.3891 93.333 62.9653 93.333 62.5233C93.333 62.0814 93.1575 61.6575 92.845 61.345L85 53.5L77.155 61.345C76.8425 61.6575 76.667 62.0814 76.667 62.5233C76.667 62.9653 76.8425 63.3891 77.155 63.7017C77.47 64.0167 77.9017 64.1733 78.3333 64.1733C78.765 64.1733 79.1967 64.0167 79.5117 63.7017L83.3333 59.88V71C83.3333 71.442 83.5089 71.8659 83.8215 72.1785C84.134 72.4911 84.558 72.6667 85 72.6667C85.442 72.6667 85.8659 72.4911 86.1785 72.1785C86.4911 71.8659 86.6667 71.442 86.6667 71V59.88L90.4883 63.7017C90.8032 64.0086 91.227 64.1782 91.6667 64.1733Z" fill="#A32E8C"/>
<path d="M45.8818 101.16L47.2559 99.2734L45.1914 98.6582L45.5127 97.6328L47.5771 98.3916L47.5156 96.04H48.5547L48.4863 98.4326L50.5234 97.6738L50.8379 98.7197L48.7393 99.3418L50.0859 101.194L49.2383 101.83L47.9736 99.8613L46.7363 101.782L45.8818 101.16ZM57.8789 96.0469H59.1914V102.78C59.1914 103.528 59.0251 104.15 58.6924 104.646C58.3597 105.143 57.9176 105.517 57.3662 105.768C56.8193 106.014 56.2246 106.137 55.582 106.137C54.9076 106.137 54.2969 106.014 53.75 105.768C53.2077 105.517 52.777 105.143 52.458 104.646C52.1436 104.15 51.9863 103.528 51.9863 102.78V96.0469H53.292V102.78C53.292 103.3 53.3877 103.728 53.5791 104.065C53.7705 104.403 54.0371 104.653 54.3789 104.817C54.7253 104.981 55.1263 105.063 55.582 105.063C56.0423 105.063 56.4434 104.981 56.7852 104.817C57.1315 104.653 57.4004 104.403 57.5918 104.065C57.7832 103.728 57.8789 103.3 57.8789 102.78V96.0469ZM62.3359 100.025V108.844H61.0645V98.6035H62.2266L62.3359 100.025ZM67.3193 102.24V102.384C67.3193 102.922 67.2555 103.421 67.1279 103.881C67.0003 104.337 66.8135 104.733 66.5674 105.07C66.3258 105.408 66.0273 105.67 65.6719 105.856C65.3164 106.043 64.9085 106.137 64.4482 106.137C63.9788 106.137 63.5641 106.059 63.2041 105.904C62.8441 105.749 62.5387 105.524 62.2881 105.228C62.0374 104.931 61.8369 104.576 61.6865 104.161C61.5407 103.746 61.4404 103.279 61.3857 102.76V101.994C61.4404 101.447 61.543 100.957 61.6934 100.524C61.8438 100.091 62.042 99.7223 62.2881 99.417C62.5387 99.1071 62.8418 98.8724 63.1973 98.7129C63.5527 98.5488 63.9629 98.4668 64.4277 98.4668C64.8926 98.4668 65.305 98.5579 65.665 98.7402C66.0251 98.918 66.3281 99.1732 66.5742 99.5059C66.8203 99.8385 67.0049 100.237 67.1279 100.702C67.2555 101.162 67.3193 101.675 67.3193 102.24ZM66.0479 102.384V102.24C66.0479 101.871 66.0091 101.525 65.9316 101.201C65.8542 100.873 65.7334 100.586 65.5693 100.34C65.4098 100.089 65.2048 99.8932 64.9541 99.752C64.7035 99.6061 64.4049 99.5332 64.0586 99.5332C63.7396 99.5332 63.4616 99.5879 63.2246 99.6973C62.9922 99.8066 62.7939 99.9548 62.6299 100.142C62.4658 100.324 62.3314 100.534 62.2266 100.771C62.1263 101.003 62.0511 101.244 62.001 101.495V103.266C62.0921 103.585 62.2197 103.885 62.3838 104.168C62.5479 104.446 62.7666 104.672 63.04 104.845C63.3135 105.013 63.6576 105.098 64.0723 105.098C64.4141 105.098 64.708 105.027 64.9541 104.886C65.2048 104.74 65.4098 104.542 65.5693 104.291C65.7334 104.04 65.8542 103.753 65.9316 103.43C66.0091 103.102 66.0479 102.753 66.0479 102.384ZM70.3066 95.5V106H69.0352V95.5H70.3066ZM72.002 102.384V102.227C72.002 101.693 72.0794 101.199 72.2344 100.743C72.3893 100.283 72.6126 99.8841 72.9043 99.5469C73.196 99.2051 73.5492 98.9408 73.9639 98.7539C74.3786 98.5625 74.8434 98.4668 75.3584 98.4668C75.8779 98.4668 76.3451 98.5625 76.7598 98.7539C77.179 98.9408 77.5345 99.2051 77.8262 99.5469C78.1224 99.8841 78.348 100.283 78.5029 100.743C78.6579 101.199 78.7354 101.693 78.7354 102.227V102.384C78.7354 102.917 78.6579 103.411 78.5029 103.867C78.348 104.323 78.1224 104.722 77.8262 105.063C77.5345 105.401 77.1813 105.665 76.7666 105.856C76.3564 106.043 75.8916 106.137 75.3721 106.137C74.8525 106.137 74.3854 106.043 73.9707 105.856C73.556 105.665 73.2005 105.401 72.9043 105.063C72.6126 104.722 72.3893 104.323 72.2344 103.867C72.0794 103.411 72.002 102.917 72.002 102.384ZM73.2666 102.227V102.384C73.2666 102.753 73.3099 103.102 73.3965 103.43C73.4831 103.753 73.613 104.04 73.7861 104.291C73.9639 104.542 74.1849 104.74 74.4492 104.886C74.7135 105.027 75.0212 105.098 75.3721 105.098C75.7184 105.098 76.0215 105.027 76.2812 104.886C76.5456 104.74 76.7643 104.542 76.9375 104.291C77.1107 104.04 77.2406 103.753 77.3271 103.43C77.4183 103.102 77.4639 102.753 77.4639 102.384V102.227C77.4639 101.862 77.4183 101.518 77.3271 101.194C77.2406 100.866 77.1084 100.577 76.9307 100.326C76.7575 100.071 76.5387 99.8704 76.2744 99.7246C76.0146 99.5788 75.7093 99.5059 75.3584 99.5059C75.012 99.5059 74.7067 99.5788 74.4424 99.7246C74.1826 99.8704 73.9639 100.071 73.7861 100.326C73.613 100.577 73.4831 100.866 73.3965 101.194C73.3099 101.518 73.2666 101.862 73.2666 102.227ZM84.6826 104.735V100.928C84.6826 100.636 84.6234 100.383 84.5049 100.169C84.391 99.9502 84.2178 99.7816 83.9854 99.6631C83.7529 99.5446 83.4658 99.4854 83.124 99.4854C82.805 99.4854 82.5247 99.54 82.2832 99.6494C82.0462 99.7588 81.8594 99.9023 81.7227 100.08C81.5905 100.258 81.5244 100.449 81.5244 100.654H80.2598C80.2598 100.39 80.3281 100.128 80.4648 99.8682C80.6016 99.6084 80.7975 99.3737 81.0527 99.1641C81.3125 98.9499 81.6224 98.7812 81.9824 98.6582C82.347 98.5306 82.7526 98.4668 83.1992 98.4668C83.737 98.4668 84.2109 98.5579 84.6211 98.7402C85.0358 98.9225 85.3594 99.1982 85.5918 99.5674C85.8288 99.932 85.9473 100.39 85.9473 100.941V104.387C85.9473 104.633 85.9678 104.895 86.0088 105.173C86.0544 105.451 86.1204 105.69 86.207 105.891V106H84.8877C84.8239 105.854 84.7738 105.66 84.7373 105.419C84.7008 105.173 84.6826 104.945 84.6826 104.735ZM84.9014 101.516L84.915 102.404H83.6367C83.2767 102.404 82.9554 102.434 82.6729 102.493C82.3903 102.548 82.1533 102.632 81.9619 102.746C81.7705 102.86 81.6247 103.004 81.5244 103.177C81.4242 103.345 81.374 103.544 81.374 103.771C81.374 104.004 81.4264 104.216 81.5312 104.407C81.6361 104.599 81.7933 104.751 82.0029 104.865C82.2171 104.975 82.4792 105.029 82.7891 105.029C83.1764 105.029 83.5182 104.947 83.8145 104.783C84.1107 104.619 84.3454 104.419 84.5186 104.182C84.6963 103.945 84.792 103.715 84.8057 103.491L85.3457 104.1C85.3138 104.291 85.2272 104.503 85.0859 104.735C84.9447 104.968 84.7555 105.191 84.5186 105.405C84.2861 105.615 84.0081 105.79 83.6846 105.932C83.3656 106.068 83.0055 106.137 82.6045 106.137C82.1032 106.137 81.6634 106.039 81.2852 105.843C80.9115 105.647 80.6198 105.385 80.4102 105.057C80.2051 104.724 80.1025 104.353 80.1025 103.942C80.1025 103.546 80.18 103.197 80.335 102.896C80.4899 102.591 80.7132 102.338 81.0049 102.138C81.2965 101.933 81.6475 101.778 82.0576 101.673C82.4678 101.568 82.9258 101.516 83.4316 101.516H84.9014ZM92.5986 104.564V95.5H93.8701V106H92.708L92.5986 104.564ZM87.6221 102.384V102.24C87.6221 101.675 87.6904 101.162 87.8271 100.702C87.9684 100.237 88.1667 99.8385 88.4219 99.5059C88.6816 99.1732 88.9893 98.918 89.3447 98.7402C89.7048 98.5579 90.1058 98.4668 90.5479 98.4668C91.0127 98.4668 91.4183 98.5488 91.7646 98.7129C92.1156 98.8724 92.4118 99.1071 92.6533 99.417C92.8994 99.7223 93.0931 100.091 93.2344 100.524C93.3757 100.957 93.4736 101.447 93.5283 101.994V102.623C93.4782 103.165 93.3802 103.653 93.2344 104.086C93.0931 104.519 92.8994 104.888 92.6533 105.193C92.4118 105.499 92.1156 105.733 91.7646 105.897C91.4137 106.057 91.0036 106.137 90.5342 106.137C90.1012 106.137 89.7048 106.043 89.3447 105.856C88.9893 105.67 88.6816 105.408 88.4219 105.07C88.1667 104.733 87.9684 104.337 87.8271 103.881C87.6904 103.421 87.6221 102.922 87.6221 102.384ZM88.8936 102.24V102.384C88.8936 102.753 88.93 103.099 89.0029 103.423C89.0804 103.746 89.1989 104.031 89.3584 104.277C89.5179 104.523 89.7207 104.717 89.9668 104.858C90.2129 104.995 90.5068 105.063 90.8486 105.063C91.2679 105.063 91.612 104.975 91.8809 104.797C92.1543 104.619 92.373 104.384 92.5371 104.093C92.7012 103.801 92.8288 103.484 92.9199 103.143V101.495C92.8652 101.244 92.7855 101.003 92.6807 100.771C92.5804 100.534 92.4482 100.324 92.2842 100.142C92.1247 99.9548 91.9264 99.8066 91.6895 99.6973C91.457 99.5879 91.1813 99.5332 90.8623 99.5332C90.516 99.5332 90.2174 99.6061 89.9668 99.752C89.7207 99.8932 89.5179 100.089 89.3584 100.34C89.1989 100.586 89.0804 100.873 89.0029 101.201C88.93 101.525 88.8936 101.871 88.8936 102.24ZM100.686 98.6035V106H99.4141V98.6035H100.686ZM99.3184 96.6416C99.3184 96.4365 99.3799 96.2633 99.5029 96.1221C99.6305 95.9808 99.8174 95.9102 100.063 95.9102C100.305 95.9102 100.49 95.9808 100.617 96.1221C100.749 96.2633 100.815 96.4365 100.815 96.6416C100.815 96.8376 100.749 97.0062 100.617 97.1475C100.49 97.2842 100.305 97.3525 100.063 97.3525C99.8174 97.3525 99.6305 97.2842 99.5029 97.1475C99.3799 97.0062 99.3184 96.8376 99.3184 96.6416ZM105.676 105.098C105.977 105.098 106.255 105.036 106.51 104.913C106.765 104.79 106.975 104.621 107.139 104.407C107.303 104.188 107.396 103.94 107.419 103.662H108.622C108.599 104.1 108.451 104.507 108.178 104.886C107.909 105.259 107.556 105.562 107.118 105.795C106.681 106.023 106.2 106.137 105.676 106.137C105.12 106.137 104.634 106.039 104.22 105.843C103.81 105.647 103.468 105.378 103.194 105.036C102.925 104.694 102.723 104.302 102.586 103.86C102.454 103.414 102.388 102.942 102.388 102.445V102.158C102.388 101.661 102.454 101.192 102.586 100.75C102.723 100.303 102.925 99.9092 103.194 99.5674C103.468 99.2256 103.81 98.9567 104.22 98.7607C104.634 98.5648 105.12 98.4668 105.676 98.4668C106.255 98.4668 106.76 98.5853 107.193 98.8223C107.626 99.0547 107.966 99.3737 108.212 99.7793C108.463 100.18 108.599 100.636 108.622 101.146H107.419C107.396 100.841 107.31 100.565 107.159 100.319C107.013 100.073 106.813 99.8773 106.558 99.7314C106.307 99.5811 106.013 99.5059 105.676 99.5059C105.288 99.5059 104.963 99.5833 104.698 99.7383C104.438 99.8887 104.231 100.094 104.076 100.354C103.926 100.609 103.816 100.894 103.748 101.208C103.684 101.518 103.652 101.835 103.652 102.158V102.445C103.652 102.769 103.684 103.088 103.748 103.402C103.812 103.717 103.919 104.002 104.069 104.257C104.224 104.512 104.432 104.717 104.691 104.872C104.956 105.022 105.284 105.098 105.676 105.098ZM109.709 102.384V102.227C109.709 101.693 109.786 101.199 109.941 100.743C110.096 100.283 110.32 99.8841 110.611 99.5469C110.903 99.2051 111.256 98.9408 111.671 98.7539C112.086 98.5625 112.55 98.4668 113.065 98.4668C113.585 98.4668 114.052 98.5625 114.467 98.7539C114.886 98.9408 115.242 99.2051 115.533 99.5469C115.829 99.8841 116.055 100.283 116.21 100.743C116.365 101.199 116.442 101.693 116.442 102.227V102.384C116.442 102.917 116.365 103.411 116.21 103.867C116.055 104.323 115.829 104.722 115.533 105.063C115.242 105.401 114.888 105.665 114.474 105.856C114.063 106.043 113.599 106.137 113.079 106.137C112.56 106.137 112.092 106.043 111.678 105.856C111.263 105.665 110.908 105.401 110.611 105.063C110.32 104.722 110.096 104.323 109.941 103.867C109.786 103.411 109.709 102.917 109.709 102.384ZM110.974 102.227V102.384C110.974 102.753 111.017 103.102 111.104 103.43C111.19 103.753 111.32 104.04 111.493 104.291C111.671 104.542 111.892 104.74 112.156 104.886C112.421 105.027 112.728 105.098 113.079 105.098C113.425 105.098 113.729 105.027 113.988 104.886C114.253 104.74 114.471 104.542 114.645 104.291C114.818 104.04 114.948 103.753 115.034 103.43C115.125 103.102 115.171 102.753 115.171 102.384V102.227C115.171 101.862 115.125 101.518 115.034 101.194C114.948 100.866 114.815 100.577 114.638 100.326C114.465 100.071 114.246 99.8704 113.981 99.7246C113.722 99.5788 113.416 99.5059 113.065 99.5059C112.719 99.5059 112.414 99.5788 112.149 99.7246C111.89 99.8704 111.671 100.071 111.493 100.326C111.32 100.577 111.19 100.866 111.104 101.194C111.017 101.518 110.974 101.862 110.974 102.227ZM119.293 100.183V106H118.028V98.6035H119.225L119.293 100.183ZM118.992 102.021L118.466 102.001C118.47 101.495 118.546 101.028 118.691 100.6C118.837 100.167 119.042 99.7907 119.307 99.4717C119.571 99.1527 119.885 98.9066 120.25 98.7334C120.619 98.5557 121.027 98.4668 121.474 98.4668C121.838 98.4668 122.166 98.5169 122.458 98.6172C122.75 98.7129 122.998 98.8678 123.203 99.082C123.413 99.2962 123.572 99.5742 123.682 99.916C123.791 100.253 123.846 100.666 123.846 101.153V106H122.574V101.14C122.574 100.752 122.517 100.442 122.403 100.21C122.289 99.973 122.123 99.8021 121.904 99.6973C121.686 99.5879 121.417 99.5332 121.098 99.5332C120.783 99.5332 120.496 99.5993 120.236 99.7314C119.981 99.8636 119.76 100.046 119.573 100.278C119.391 100.511 119.247 100.777 119.143 101.078C119.042 101.374 118.992 101.689 118.992 102.021Z" fill="#A32E8C"/>
<rect x="0.25" y="0.75" width="162.5" height="162.5" rx="2.75" stroke="#A32E8C" stroke-width="0.5"/>
</svg>
